<?xml version="1.0" encoding="UTF-8"?>
<svg id="Layer_2" data-name="Layer 2" xmlns="http://www.w3.org/2000/svg" width="159.96mm" height="268.3mm" xmlns:xlink="http://www.w3.org/1999/xlink" viewBox="0 0 453.42 760.53">
  <defs>
    <linearGradient id="linear-gradient" x1="-157.49" y1="704.64" x2="-158.3" y2="651.51" gradientTransform="translate(339.66 25.69) rotate(-171.35) scale(1 -1)" gradientUnits="userSpaceOnUse">
      <stop offset="0" stop-color="#7a1224"/>
      <stop offset="1" stop-color="#ea1b39"/>
    </linearGradient>
    <linearGradient id="linear-gradient-2" x1="-83.5" y1="527.56" x2="-20.19" y2="527.56" gradientTransform="translate(633.82 117.68) rotate(-144.5) scale(1 -1)" gradientUnits="userSpaceOnUse">
      <stop offset="0" stop-color="#fff"/>
      <stop offset="1" stop-color="#e6e6e5"/>
    </linearGradient>
    <linearGradient id="linear-gradient-3" x1="-49.92" y1="491.32" x2="-20.17" y2="491.32" gradientTransform="translate(633.82 117.68) rotate(-144.5) scale(1 -1)" gradientUnits="userSpaceOnUse">
      <stop offset="0" stop-color="#7b1225"/>
      <stop offset="1" stop-color="#ea1b39"/>
    </linearGradient>
    <linearGradient id="linear-gradient-4" x1="-65.58" y1="470.93" x2="-31.51" y2="470.93" xlink:href="#linear-gradient-2"/>
    <linearGradient id="linear-gradient-5" x1="-77.76" y1="485.74" x2="-77.76" y2="449.9" xlink:href="#linear-gradient-3"/>
    <linearGradient id="linear-gradient-6" x1="-117.52" y1="564.7" x2="-45.03" y2="564.7" xlink:href="#linear-gradient-3"/>
    <linearGradient id="linear-gradient-7" x1="205.04" y1="498.82" x2="205.04" y2="683.89" gradientUnits="userSpaceOnUse">
      <stop offset="0" stop-color="#ea1b39"/>
      <stop offset="1" stop-color="#7a1224"/>
    </linearGradient>
    <linearGradient id="linear-gradient-8" x1="164.65" y1="630.56" x2="387.91" y2="647.62" xlink:href="#linear-gradient-7"/>
    <linearGradient id="linear-gradient-9" x1="38.61" y1="552.29" x2="108.56" y2="448.13" gradientUnits="userSpaceOnUse">
      <stop offset="0" stop-color="#2b4160"/>
      <stop offset="1" stop-color="#101724"/>
    </linearGradient>
    <linearGradient id="linear-gradient-10" x1="214.44" y1="0" x2="214.44" y2="491.74" xlink:href="#linear-gradient-9"/>
    <linearGradient id="linear-gradient-11" x1="204.36" y1="625.19" x2="204.36" y2="428.87" gradientUnits="userSpaceOnUse">
      <stop offset="0" stop-color="#1b2538"/>
      <stop offset="1" stop-color="#1b2538"/>
    </linearGradient>
    <linearGradient id="linear-gradient-12" x1="340.36" y1="526.39" x2="289.46" y2="408.08" xlink:href="#linear-gradient-9"/>
    <linearGradient id="linear-gradient-13" x1="213.12" y1="282.82" x2="213.12" y2="550.4" gradientUnits="userSpaceOnUse">
      <stop offset="0" stop-color="#d4d8df"/>
      <stop offset="1" stop-color="#ddad26"/>
    </linearGradient>
    <linearGradient id="linear-gradient-14" x1="192.38" y1="137.03" x2="217.68" y2="369.46" xlink:href="#linear-gradient-7"/>
    <clipPath id="clippath">
      <path d="m213.77,317.07c-18.43,0-11.56,25.23-22.86,34.29-13.38,10.72-10.32,32.08,22.86,32.08s33.32-24.3,22.86-32.08c-11.4-8.48-8.11-34.29-22.86-34.29Z" style="fill: none; stroke-width: 0px;"/>
    </clipPath>
    <linearGradient id="linear-gradient-15" x1="1250.72" y1="2024.33" x2="1250.36" y2="2105.18" gradientTransform="translate(-1131.32 -1502.25)" gradientUnits="userSpaceOnUse">
      <stop offset="0" stop-color="#ddad26"/>
      <stop offset="1" stop-color="#a8cf38"/>
    </linearGradient>
    <linearGradient id="linear-gradient-16" x1="1256.35" y1="1949.27" x2="1256.35" y2="1964.61" gradientTransform="translate(-1815.01 -879.64) rotate(-22.12)" gradientUnits="userSpaceOnUse">
      <stop offset="0" stop-color="#7d51a1"/>
      <stop offset="1" stop-color="#683b91"/>
    </linearGradient>
    <linearGradient id="linear-gradient-17" x1="1273.53" y1="1935.56" x2="1273.53" y2="1946.46" xlink:href="#linear-gradient-16"/>
    <linearGradient id="linear-gradient-18" x1="-597.22" y1="79.92" x2="-596.4" y2="98.6" gradientTransform="translate(589.57 134.71) rotate(-22.13) scale(1 2.07)" xlink:href="#linear-gradient-16"/>
    <linearGradient id="linear-gradient-19" x1="-564.47" y1="-6.92" x2="-564.84" y2="73.91" gradientTransform="translate(702.47 515.05)" gradientUnits="userSpaceOnUse">
      <stop offset="0" stop-color="#2dabe2"/>
      <stop offset="1" stop-color="#385caa"/>
    </linearGradient>
    <linearGradient id="linear-gradient-20" x1="125.74" y1="555.86" x2="129.02" y2="579.17" gradientUnits="userSpaceOnUse">
      <stop offset="0" stop-color="#a8cf38"/>
      <stop offset=".39" stop-color="#a5ce38"/>
      <stop offset=".57" stop-color="#9ecc39"/>
      <stop offset=".71" stop-color="#91c83c"/>
      <stop offset=".83" stop-color="#7fc43f"/>
      <stop offset=".93" stop-color="#67bd44"/>
      <stop offset="1" stop-color="#52b848"/>
    </linearGradient>
    <linearGradient id="linear-gradient-21" x1="133.81" y1="637.24" x2="127.62" y2="590.99" xlink:href="#linear-gradient-20"/>
    <linearGradient id="linear-gradient-22" x1="151.81" y1="474.65" x2="151.81" y2="496.23" gradientTransform="matrix(1,0,0,1,0,0)" xlink:href="#linear-gradient-16"/>
    <linearGradient id="linear-gradient-23" x1="122.57" y1="459.44" x2="122.57" y2="474.79" gradientTransform="matrix(1,0,0,1,0,0)" xlink:href="#linear-gradient-16"/>
    <linearGradient id="linear-gradient-24" x1="137.55" y1="438.86" x2="137.55" y2="449.76" gradientTransform="matrix(1,0,0,1,0,0)" xlink:href="#linear-gradient-16"/>
    <linearGradient id="linear-gradient-25" x1="-564.94" y1="12.08" x2="-564.11" y2="30.76" gradientTransform="translate(706.62 570.83) rotate(10.18) scale(1 2.07)" xlink:href="#linear-gradient-16"/>
    <linearGradient id="linear-gradient-26" x1="128.09" y1="580.5" x2="128.05" y2="588.07" xlink:href="#linear-gradient-20"/>
    <linearGradient id="linear-gradient-27" x1="1256.19" y1="1980.98" x2="1256.19" y2="2002.57" xlink:href="#linear-gradient-16"/>
  </defs>
  <g id="candy_cane" data-name="candy cane">
    <g>
      <path d="m441.75,571.42c5.83-.12,10.88-4.44,11.48-10.24.03-.29.05-.58.06-.88.37-8.4-7.47-27.89-25.2-38.13-18.2-10.51-37.91-9.6-55.65,2.22-17.36,11.58-25.75,32.58-22.42,51.76,1.63,9.37,11.67,53.78,21,96.92,6.58,30.43,12.57,60.3,16.02,76.53,1.55,7.28,8.01,11.78,15.12,10.64h0c7.66-1.23,12.36-8.66,10.73-16.24l-36.63-171.95c-2.98-14.15,6.68-27.23,20.84-30.2h0c12.03-2.08,24.64,4.47,28.87,15.78.38,1.01.69,2.03.99,3.03,1.95,6.49,7.99,10.89,14.77,10.75h0Z" style="fill: none; stroke: #818181; stroke-miterlimit: 10; stroke-width: .22px;"/>
      <path d="m404.39,704.66c-1.87-.26-4.1-.8-5.93-1.26-.07-.02-.21-.05-.28-.07-1.92-.5-3.8-1.15-5.67-1.84-.91-.37-1.8-.77-2.7-1.14-3.09-1.49-6.1-3.18-8.86-5.22l-.1-.08c-2.25-1.62-4.32-3.48-6.31-5.41-.02-.02-.05-.05-.07-.06-.62-3.27-1.38-6.51-2.02-9.77-2.56-12.13-5.09-24.26-7.64-36.4-.19-.83-.25-1.69-.62-2.47l.12-.05c.15.5.59.81.94,1.17,1.82,1.73,3.73,3.37,5.78,4.82l.12.09c3.35,2.41,7,4.41,10.84,5.95,1.86.75,3.76,1.38,5.7,1.91.24.06.48.12.72.18.13.03.26.06.39.09,1.66.45,3.54.75,5.24,1.02l10.34,48.53Z" style="fill: #fff; stroke-width: 0px;"/>
      <path d="m374.54,689.64c.23,1.1.63,2.32.86,3.42,2.89,13.88,5.72,27.73,8.62,41.61.03.33.41.55.61.79,1.84,1.92,3.92,3.62,6.06,5.2.03.02.08.06.11.08,1.47,1.1,3.06,2.02,4.59,3.03-.05-.06.05.05,0,0,1.44.86,2.79,1.47,4.32,2.17,1.79.82,3.64,1.54,5.52,2.16.97.31,1.94.59,2.92.84.03,0,.08.02.1.03.35.1.71.2,1.06.28.98.23,1.97.44,2.96.61.3.05.32.06.62.1.15-.25.34-1.36.37-1.59.13-1.39,0-1.84-.3-3.19-2.83-13.47-5.71-27.05-8.56-40.51-1.89-.26-3.66-.64-5.51-1.11-.07-.02-.21-.05-.28-.07-1.94-.51-3.86-1.07-5.74-1.76-.92-.37-1.82-.78-2.73-1.15-3.12-1.51-6.16-3.21-8.95-5.27l-.11-.08c-2.27-1.64-4.53-3.63-6.54-5.58Z" style="fill: url(#linear-gradient); stroke-width: 0px;"/>
      <path d="m352.66,588.88c-.68-3.08-1.31-6.17-1.95-9.25-1.37-6.09-1.81-12.42-.91-18.61.24-2.42.79-4.8,1.46-7.14.08-.74.38-1.43.56-2.15.21-.87.59-1.69.86-2.54.09-.28,4.23-8.87,4.53-8.99.75,2.03,1.54,4.05,2.51,5.99h0c1.92,3.91,4.31,7.56,7.11,10.88,1.41,1.62,2.91,3.17,4.46,4.65.2.17.41.33.61.51,1.15,1,2.29,2,3.52,2.88l.3.22c-.15,1.63.09,3.25.26,4.88.4,3.15,1.28,6.17,1.9,9.28,1.85,8.92,3.79,17.66,5.66,26.57.25,1.48.84,3.3,1.02,4.79-1.91-.45-4.36-1.08-6.22-1.71-.33-.11-.65-.24-.98-.36-1.67-.62-3.3-1.33-4.89-2.12-.42-.21-.84-.43-1.26-.65-2.09-1.11-4.11-2.36-6.04-3.74-1.46-1.02-2.82-2.17-4.19-3.32-.43-.37-.85-.76-1.25-1.17-.03-.16-.07-.32-.1-.48-.83-.67-1.57-1.44-2.25-2.25-1.32-1.24-2.32-2.76-3.5-4.14.42.81,1.05,1.46,1.55,2.22,0,.02-.03.06-.04.08-.02-.03-.07-.09-.09-.12-.8-1.01-1.5-2.35-2.37-3.3-.06-.58-.15-.55-.26-.94Z" style="fill: url(#linear-gradient-2); stroke-width: 0px;"/>
      <path d="m387.53,517.19c-.53.16-2.56,1-3.09,1.16-11.19,3.9-21,11.77-27.16,21.91.12,0,.23.04-.02.03.73,2.04,1.53,4.05,2.51,6.01v.02c1.9,3.88,4.31,7.53,7.09,10.85,1.43,1.61,2.92,3.16,4.47,4.66.24.2.49.4.72.62,1.18,1.05,2.4,2.05,3.68,2.96.66-7.35,4.58-14.35,10.55-18.69l-.03-.07c-.44-1.8-.79-3.65-1.04-5.5-.8-5.87-.61-11.88.59-17.66.36-1.73.79-3.45,1.35-5.14l.39-1.16Z" style="fill: url(#linear-gradient-3); stroke-width: 0px;"/>
      <path d="m409.48,542.52c.71-1.59,1.48-3.16,2.34-4.68,2.69-4.78,6.14-9.12,10.17-12.84,1.4-1.3,2.89-2.5,4.41-3.65-3.53-1.94-7.33-3.34-11.19-4.46-3.68-.9-7.45-1.56-11.25-1.67-2.51-.08-5.03-.1-7.52.23-2.95.26-5.86.84-8.71,1.66-.4,0-.45.71-.55,1.02-.56,1.67-.99,3.39-1.34,5.12-1.21,5.8-1.39,11.8-.59,17.67.25,1.85.61,3.69,1.06,5.51,1.83-1.17,3.67-2.36,5.73-3.11,5.36-2.21,11.9-2.43,17.46-.8h0Z" style="fill: url(#linear-gradient-4); stroke-width: 0px;"/>
      <path d="m411.81,537.84c-.86,1.52-1.61,3.09-2.34,4.69.22.08.47.18.69.26,5.61,1.87,10.55,5.73,13.72,10.74,1.14,1.76,2.01,3.67,2.69,5.65,1.1-1.79,2.25-3.54,3.52-5.23,3.3-4.34,7.27-8.17,11.78-11.28,1.41-1,2.89-1.92,4.4-2.78-.63-.71-1.15-1.52-1.72-2.28-.22-.34-.72-1.05-.98-1.42-4.61-6.3-10.3-11.15-17.17-14.82-1.54,1.14-3.02,2.35-4.4,3.65-4.03,3.71-7.48,8.07-10.18,12.83Z" style="fill: url(#linear-gradient-5); stroke-width: 0px;"/>
      <path d="m413.07,749.33c-1.3-.2-2.7-.55-3.98-.86-.36-.08-.71-.19-1.07-.28-.03,0-.08-.02-.1-.03-.99-.25-1.97-.54-2.94-.85-1.87-.62-3.72-1.34-5.52-2.16,0,0-.02,0-.03-.01-1.54-.7-3.04-1.48-4.49-2.35.05.05.1.11.15.16-1.54-1.01-3.13-1.94-4.61-3.04-.03-.02-.08-.06-.11-.08-2.15-1.59-4.23-3.29-6.09-5.23l-.24.03s1.01,5.73,1.63,8.36c.49,2.47,1.04,4.93,1.56,7.4.79,3.47,3.11,6.59,6.24,8.31.4.33.88.54,1.36.72,1.39.6,2.89.99,4.42,1.04.42,0,.11,0,1.4-.08,1.21-.14,3.04-.58,3.18-.62h0s0,0,0,0c1.48-.26,2.85-.98,4.08-1.81.48-.44,1.12-.76,1.41-1.36.44-.38.83-.82,1.12-1.32.78-.98,1.38-2.1,1.83-3.26.38-.86.47-1.8.79-2.68" style="fill: #fff; stroke-width: 0px;"/>
      <path d="m354.56,595.73c3.12,14.99,6.37,29.98,9.51,44.98.16.5.6.82.95,1.19,1.78,1.68,3.66,3.28,5.64,4.72l.36.26c3.4,2.45,7.1,4.47,11,6.04,1.88.75,3.82,1.39,5.77,1.93.25.05.48.11.74.19.14.02.28.04.4.08.13.04.28.07.41.11,1.55.39,3.14.65,4.71.89-3.13-15.23-6.38-30.43-9.54-45.65l-.06-.02c-1.89-.45-3.8-.99-5.65-1.64-.33-.11-.65-.24-.99-.35-1.67-.62-3.29-1.34-4.89-2.12-.41-.22-.82-.43-1.25-.66-2.09-1.11-4.12-2.34-6.04-3.72-1.46-1.02-2.81-2.19-4.19-3.32-.42-.38-.84-.78-1.25-1.17-1.55-1.44-3.03-2.96-4.3-4.64l-3.13-3.64,1.81,6.53Z" style="fill: url(#linear-gradient-6); stroke-width: 0px;"/>
    </g>
  </g>
  <g id="pose_1" data-name="pose 1">
    <g id="Layer_1_copy" data-name="Layer 1 copy">
      <path d="m236.56,683.61s-18.95,11.72-17.64,26.34c1.31,14.62,8.81,30.32,20.67,30.32,13.56,0,24.62-15.17,27.43-28.62,2.82-13.45-13.17-25.06-19.24-29.74-12.14-9.36-11.22,1.7-11.22,1.7Z" style="fill: #223754; stroke-width: 0px;"/>
      <path d="m343.8,585.07c-.04,2.19-.14,4.37-.3,6.53-.31,4.2-.83,8.37-1.58,12.47-9.19,50.9-52.09,92.88-135.85,92.88-36.67,0-65.15-6.26-86.56-17.01-1.25-.62-2.48-1.26-3.69-1.92-27.62-15.08-42.6-37.99-47.63-64.37-6.66-34.93,4.16-75.93,26.24-112.79l58.57-72.79,143.72,45.1,2.65,4.71c29.54,30.38,45.21,70,44.43,107.19Z" style="fill: url(#linear-gradient-7); stroke-width: 0px;"/>
      <path d="m343.8,585.07c-.04,2.19-.14,4.37-.3,6.53-.31,4.2-.83,8.37-1.58,12.47-9.19,50.9-52.09,92.88-135.85,92.88-36.67,0-65.15-6.26-86.56-17.01l.19-9.49,110.69-28.92s4.74-16.25,4.87-32c.04-5.92-.56-11.77-2.31-16.66,0,0,72.1-27.92,110.85-7.8Z" style="fill: url(#linear-gradient-8); stroke-width: 0px;"/>
      <path d="m111.13,448.76S2.51,510.13.13,522.07s29.82,81.9,29.82,81.9l39.4-25.07s-5.54-35.24-1.95-40.01,58.08-27.91,58.08-27.91l-14.35-62.21Z" style="fill: url(#linear-gradient-9); stroke-width: 0px;"/>
      <path d="m211.85,510.97c4.56-12.88-122.78-97.1-134.91-76.65-4.5,7.58-24.87,44.77-11.82,42.59,11.36-1.9,148.49,26.03,146.73,34.07Z" style="fill: #1b2538; stroke-width: 0px;"/>
      <g>
        <path d="m214.5,0c89.12,0,233.51,382.28,175.87,448.89-26.14,30.21-176.66,42.84-176.66,42.84,0,0-153.56,2.22-175.87-46.48C-17.92,323.52,125.38,0,214.5,0Z" style="fill: url(#linear-gradient-10); stroke-width: 0px;"/>
        <path d="m52.03,430.66c-17.06-27.1,58.36-386.45,159.31-391.01s178.83,356.11,164.04,388.28c-17.64,38.35-303.9,33.64-323.35,2.73Z" style="fill: #10161f; stroke-width: 0px;"/>
      </g>
      <path d="m346.44,600.56c-.09,2.3-1.83,4.18-4.12,4.45-21.63,2.65-86.79,17.55-131.06,19.63-66.39,3.13-123.92-8.11-144.09-11.32-2.02-.32-3.6-1.9-3.9-3.92-5.2-34.45,8.11-78.27,31.16-108.54l56.51-70.23c1.24-1.54,3.3-2.14,5.17-1.5l142.77,48.59c.33.11.64.25.94.43,46.08,27.54,47.4,103.64,46.62,122.42Z" style="fill: url(#linear-gradient-11); stroke-width: 0px;"/>
      <path d="m66.25,591.33s216.28-1.54,246.49-128.4" style="fill: none; stroke: #1c2538; stroke-linecap: round; stroke-miterlimit: 10; stroke-width: 8px;"/>
      <path d="m268.22,499.76l48.15-47.7s50.75,36.25,76.12,57.99c25.37,21.75-64.04,80.95-64.04,80.95l-26.58-44.7,24.4-15.52-58.04-31.02Z" style="fill: url(#linear-gradient-12); stroke-width: 0px;"/>
      <path d="m211.96,510.97c-4.13-12.88,111.21-97.1,122.2-76.65,4.07,7.58,22.53,44.77,10.7,42.59-10.29-1.9-134.5,26.03-132.9,34.07Z" style="fill: #1b2538; stroke-width: 0px;"/>
      <path d="m195.19,588.74c-1.24-6.31-14.75-18.73-30.9-7.08-25.81,18.61-.45,64.87,49.95,52.36,33.61-8.34,42.74-40.97,39.16-69.46-11.2-89.14,110.89-78.93,97.61-199.94-13.28-121.01-248.12-39.99-248.12-39.99l-21.7,36.99c-40.82,118.67,110.35,179.22,126.09,215.26,17.42,39.88-31.86,45.93-35.1,24.26-1.84-12.34,12.91-20.88,23.01-12.4" style="fill: url(#linear-gradient-13); stroke-width: 0px;"/>
      <g>
        <path d="m74.23,327.96S110.22,208.41,213.85,62.26c0,0,81.7,110.55,138.17,264.94l-277.8.76Z" style="fill: url(#linear-gradient-14); stroke-width: 0px;"/>
        <polygon points="297.46 262.94 295.84 277 285.67 267.17 271.8 269.98 278 257.26 271.05 244.94 285.06 246.91 294.63 236.49 297.08 250.42 309.96 256.31 297.46 262.94" style="fill: #fff; stroke-width: 0px;"/>
        <polygon points="249.49 253.62 247.87 267.68 237.7 257.85 223.83 260.66 230.03 247.94 223.08 235.61 237.09 237.59 246.66 227.16 249.11 241.1 261.99 246.98 249.49 253.62" style="fill: #fff; stroke-width: 0px;"/>
        <polygon points="195.8 254.38 194.19 268.44 184.01 258.61 170.14 261.41 176.35 248.7 169.39 236.37 183.4 238.35 192.98 227.92 195.43 241.86 208.3 247.74 195.8 254.38" style="fill: #fff; stroke-width: 0px;"/>
        <polygon points="144.97 265.1 143.36 279.16 133.18 269.32 119.31 272.13 125.52 259.41 118.56 247.09 132.58 249.07 142.15 238.64 144.6 252.58 157.47 258.46 144.97 265.1" style="fill: #fff; stroke-width: 0px;"/>
        <circle cx="214.26" cy="60.01" r="20.51" style="fill: #ebbb1e; stroke-width: 0px;"/>
        <path d="m76.53,358.67l-9.01-14.81c-2.32-3.81-1.38-8.77,2.19-11.44,15.53-11.61,62.23-39.33,147.02-39.33s127.84,27.81,142.33,39.39c3.34,2.67,4.18,7.41,2.03,11.11l-8.51,14.64c-2.29,3.94-7.24,5.45-11.33,3.43-17.07-8.45-64.09-28.14-124.52-28.14s-111.32,20.37-129.18,28.56c-4,1.83-8.73.37-11.02-3.39Z" style="fill: #ea1b39; stroke-width: 0px;"/>
      </g>
      <path d="m179.79,668.62c19.15,20.15-3.71,39.72,5.26,49.41,10.46,11.29,27.98,2.69,31.86,10.35,3.88,7.66-15.56,14.28-34.61,11.27-23.11-3.65-42.64-36.52-43.21-54.44-.74-23.44,16.93-37.08,16.93-37.08l18.88,9.4,4.9,11.09Z" style="fill: #223754; stroke-width: 0px;"/>
      <path d="m213.77,317.07c-18.43,0-11.56,25.23-22.86,34.29-13.38,10.72-10.32,32.08,22.86,32.08s33.32-24.3,22.86-32.08c-11.4-8.48-8.11-34.29-22.86-34.29Z" style="fill: #c08857; stroke-width: 0px;"/>
      <g style="clip-path: url(#clippath);">
        <path d="m191.26,344.11c-8.14,13.43-4.71,26.46,21.86,26.46s35.11-17.03,26.58-26.46l15.79,29.4-42.36,19.45-34.89-9.52v-21.82l13.03-17.5Z" style="fill: #af7243; stroke-width: 0px;"/>
      </g>
      <path d="m238.6,392.18s-3.99,18-24.34,18-24.34-18-24.34-18" style="fill: none; stroke: #1c2538; stroke-linecap: round; stroke-linejoin: round; stroke-width: 3px;"/>
      <g>
        <rect x="94.08" y="512.91" width="50.33" height="89.52" transform="translate(-201.23 85.96) rotate(-22.12)" style="fill: url(#linear-gradient-15); stroke-width: 0px;"/>
        <circle cx="85.83" cy="460.09" r="7.67" style="fill: url(#linear-gradient-16); opacity: .75; stroke-width: 0px;"/>
        <circle cx="95.74" cy="438.86" r="5.45" style="fill: url(#linear-gradient-17); opacity: .75; stroke-width: 0px;"/>
        <line x1="102.28" y1="522.75" x2="126.7" y2="579.89" style="fill: none; stroke: #2dabe2; stroke-linejoin: round; stroke-width: 5px;"/>
        <line x1="93.56" y1="566.4" x2="139.77" y2="546.41" style="fill: none; stroke: #2dabe2; stroke-linejoin: round; stroke-width: 5px;"/>
        <path d="m77.75,527.96l5.07,13.69c.34,1.07,1.66,1.41,2.5.67,1.98-1.78,5.22-1.54,6.07,2.45,1.24,5.88,3.05,9.7,7.57,8.6s4.7-5.11,2.04-11.54c-3.37-8.14,5.69-11.06,8.12.35,2.26,10.61,7.51,10.1,9.7,8.7,2.4-1.53,3.58-9.77-.35-13.56-10.68-10.3-2.06-15.05,1.63-11.53,7.36,7.02,5.37,11.96,8.06,10.69,3.79-1.79-.39-9.78-2.45-13.48-1.99-3.57-.7-5.67.64-6.77.94-.77,1.26-2.07.68-3.14l-2.31-4.32c-.58-1.08-1.87-1.55-3.01-1.09l-42.58,17.32c-1.16.47-1.76,1.75-1.37,2.94Z" style="fill: url(#linear-gradient-18); stroke-width: 0px;"/>
        <path d="m83.57,536.74l-2.06-6c-.5-2.47.83-4.94,3.16-5.88l32.74-13.28c2.45-.99,5.26,0,6.54,2.32h0" style="fill: none; opacity: .25; stroke: #fff; stroke-linecap: round; stroke-linejoin: round;"/>
        <path d="m95.47,549.23c1.39,3.05,4.35,2.81,4.39.07" style="fill: none; opacity: .25; stroke: #fff; stroke-linecap: round; stroke-linejoin: round;"/>
        <path d="m112.76,546.71c2.86,3.34,5.75,2.13,5.69-.55" style="fill: none; opacity: .25; stroke: #fff; stroke-linecap: round; stroke-linejoin: round;"/>
        <path d="m125.19,534.31c1.59,1.23,3.07.77,3.25-.97" style="fill: none; opacity: .25; stroke: #fff; stroke-linecap: round; stroke-linejoin: round;"/>
        <g>
          <path d="m118.52,557.72c-2.7,1.98-4.2,5.27-4.72,8.57-.52,3.31-.17,6.68.2,10.01-1.79-1.87-3.3-4.01-4.48-6.32-.19-.38-.38-.78-.41-1.2-.04-.52.16-1.02.35-1.5.8-1.96,1.68-3.91,2.97-5.58s3.06-3.06,5.12-3.54" style="fill: #ea1b39; stroke-width: 0px;"/>
          <path d="m116.39,557.7c3.61.95,6.87,3.03,9.46,5.71s4.54,5.95,5.92,9.41c.65-1.9,1.15-3.85,1.48-5.83.05-.27.09-.56,0-.83-.08-.25-.27-.45-.46-.64-.78-.8-1.56-1.6-2.34-2.4-2.24-2.3-4.59-4.68-7.6-5.8-1.45-.54-3.16-.75-4.5.04" style="fill: #ea1b39; stroke-width: 0px;"/>
          <path d="m118.75,553.44c.48-1.06,1.49-1.78,2.53-2.3s2.16-.88,3.14-1.5c2.47-1.56,3.95-4.62,6.75-5.44.59,1.34.91,2.77,1.22,4.2.69,3.12,1.39,6.27,1.4,9.47,0,.46-.03.97-.33,1.32-.33.39-.9.47-1.42.47-2.17-.02-4.22-1.07-6.38-1.27-1.4-.13-2.82.1-4.19.43-.41.1-.89.19-1.2-.09-.18-.16-.25-.41-.31-.65-.33-1.25-.66-2.5-.98-3.75" style="fill: #ea1b39; stroke-width: 0px;"/>
          <path d="m118.8,554.88c-.3-2.32,1.18-4.53,2.97-6.04s3.93-2.57,5.68-4.12c.59-.52,1.17-1.12,1.93-1.34s1.76.11,1.91.89c-.98.45-1.93.98-2.75,1.68-.74.64-1.36,1.4-2.04,2.1-2,2.06-4.51,3.55-6.99,5.01" style="fill: #7b1225; stroke-width: 0px;"/>
          <path d="m113.22,554.25c-4.48.57-9.04.25-13.21-.93-.21-.06-.44-.12-.64-.03-.18.08-.28.24-.35.4-.87,2.06,1.74,3.9,1.58,6.04-.08,1.05-.83,2.02-1.16,3.06-.1.31-.15.68.1.9.21.19.57.21.89.2,1.11-.04,2.21-.29,3.29-.53,2.27-.51,4.53-1.01,6.8-1.52.84-.19,1.68-.38,2.47-.69.95-.38,1.8-.96,2.47-1.65.17-.17.33-.37.36-.59.04-.23-.07-.44-.17-.65-.66-1.28-1.32-2.55-1.97-3.83" style="fill: #ea1b39; stroke-width: 0px;"/>
          <path d="m113.56,554.44c-4.19.9-8.56.96-12.59.15-.49-.1-1-.22-1.35-.5s-.49-.78-.18-1.14c.19-.22.5-.34.79-.44,1.71-.55,3.57-.44,5.29-.15,1.72.29,3.37.77,5.12.95.97.1,2.03.12,2.79.58" style="fill: #7b1225; stroke-width: 0px;"/>
          <path d="m112.34,554.68c.02-.29.36-.43.64-.5,2-.53,4.02-.97,6.05-1.32.25-.04.51-.08.75-.02.37.1.64.42.85.75.41.66.66,1.41.74,2.18.04.41.03.84-.15,1.22-.35.77-1.23,1.12-2.03,1.39-1.21.42-2.41.83-3.62,1.25-.62.21-1.38.4-1.87-.04-.2-.18-.31-.44-.42-.69-.38-.95-.68-1.94-.9-2.94" style="fill: #7b1225; stroke-width: 0px;"/>
        </g>
        <rect x="112.67" y="498.95" width="50.33" height="89.52" rx="3.04" ry="3.04" transform="translate(98.24 -15.8) rotate(10.18)" style="fill: url(#linear-gradient-19); stroke-width: 0px;"/>
        <path d="m82.6,456.53c2.37-2.91,7.21-1.07,7.59,1.43" style="fill: none; opacity: .25; stroke: #fff; stroke-linecap: round; stroke-linejoin: round;"/>
        <path d="m93.35,436.45c1.48-1.81,4.49-.67,4.73.89" style="fill: none; opacity: .25; stroke: #fff; stroke-linecap: round; stroke-linejoin: round;"/>
        <line x1="143.94" y1="506.06" x2="134.04" y2="567.41" style="fill: none; stroke: #2dabe2; stroke-linejoin: round; stroke-width: 5px;"/>
        <line x1="113.24" y1="538.29" x2="162.97" y2="546.09" style="fill: none; stroke: #2dabe2; stroke-linejoin: round; stroke-width: 5px;"/>
        <path d="m98.79,585.39s-10.22-12.79-12.6-22.5c-2.38-9.71,7.29-10.1,13.88-1.35,6.6,8.76,14.58,2.18,17.14-4.83,2.55-7.02,5.73-11.36,14.63,2.61,8.9,13.97,18.31-3.86,23.23-8.69,4.92-4.83,13.53-4.98,10.45,11.47-2.15,11.5-8.71,17.67-8.71,17.67l-58.03,5.62Z" style="fill: url(#linear-gradient-20); stroke-width: 0px;"/>
        <path d="m99.27,587.9s-38.06,38.35-21.43,83.03c16.63,44.68,118.63,38.86,119.15-17.65.52-56.51-39.65-71.01-39.65-71.01" style="fill: url(#linear-gradient-21); stroke-width: 0px;"/>
        <circle cx="151.81" cy="485.44" r="10.79" style="fill: url(#linear-gradient-22); opacity: .75; stroke-width: 0px;"/>
        <circle cx="122.57" cy="467.12" r="7.67" style="fill: url(#linear-gradient-23); opacity: .75; stroke-width: 0px;"/>
        <circle cx="137.55" cy="444.31" r="5.45" style="fill: url(#linear-gradient-24); opacity: .75; stroke-width: 0px;"/>
        <path d="m120.42,497.36l-2.11,8.18c-.28,1.08.65,2.08,1.76,1.9,2.63-.44,6.36-.43,5.41,3.54-1.82,7.61-5.13,17.7-.72,19.19,4.55,1.53,6.35-6.22,7.21-17.13.69-8.78,11.6-6.31,8.16,4.84-5.53,17.95.14,20.81,2.73,20.8,2.85-.01,6.31-5.3,5.32-18.86-.86-11.78,11.91-10.92,9.17-1.67-2.89,9.75-1.85,12.98,1.1,13.34,4.16.51,4.89-8.47,5.13-12.7.23-4.08,2.44-5.17,4.16-5.38,1.21-.15,2.17-1.08,2.26-2.29l.36-4.88c.09-1.22-.76-2.31-1.96-2.53l-45.24-8.12c-1.23-.22-2.42.54-2.73,1.75Z" style="fill: url(#linear-gradient-25); stroke-width: 0px;"/>
        <path d="m120.92,462.6c3.29-1.8,7.08,1.72,6.49,4.18" style="fill: none; opacity: .25; stroke: #fff; stroke-linecap: round; stroke-linejoin: round;"/>
        <path d="m136.24,441.18c2.05-1.12,4.41,1.07,4.05,2.61" style="fill: none; opacity: .25; stroke: #fff; stroke-linecap: round; stroke-linejoin: round;"/>
        <path d="m149.17,477.94c5.32-2.91,11.44,2.78,10.48,6.75" style="fill: none; opacity: .25; stroke: #fff; stroke-linecap: round; stroke-linejoin: round;"/>
        <polygon points="99.27 587.9 157.35 582.27 156.86 579.76 98.79 585.39 99.27 587.9" style="fill: url(#linear-gradient-26); stroke-width: 0px;"/>
        <path d="m127.99,607c-.15.03-.69.13-1.17.22-5.46,1.03-10.43,3.11-13.41,5.61-2.34,1.96-4.25,4.77-5.32,7.79-1.39,3.96-1.38,7.67.04,12.03,1.12,3.44,3.12,6.65,5.35,8.55l.42.36-.09,1.18c-.09,1.11-.08,1.24.04,2.33.14,1.29.28,1.89.66,2.92.44,1.19,1.04,2.14,1.76,2.82l.35.33-1.17-.41c-4.21-1.46-6.36-2.28-6.76-2.59-.42-.31-.72-.69-1.38-1.69-.71-1.07-1-1.42-1.6-1.89-.82-.65-1.81-1.05-2.72-1.11-.69-.04-1.35.26-1.82.86-.76.94-.97,1.98-.87,4.26l.05.99-.6.67c-1.72,1.91-2.35,3.19-2.11,4.31.27,1.28,1.51,1.97,3.67,2.07.79.04,1.52-.08,2.78-.43.94-.26,1.25-.32,1.8-.37l.67-.05,2.13.71c3.64,1.22,5.64,1.9,8.13,2.77,1.32.46,2.91,1.01,3.53,1.23l1.13.39.06.64.06.64-.85.59c-2.92,2.02-5.03,3.38-6.97,4.48-1.35.77-1.62.9-2.2,1.05-.56.14-.75.14-1.88,0-.79-.11-.93-.11-1.7-.02-.88.1-1.37.24-2.21.62-.52.23-.84.53-1.12,1.05-.33.61-.41,1.01-.33,1.66.14,1.1.46,1.49,2.41,2.95.78.58,1.41,1.07,1.41,1.09s.07.24.14.49c.08.25.26,1,.41,1.68.31,1.41.45,1.75.91,2.31.35.41.76.68,1.24.84.25.08.41.09.88.03.67-.08,1.08-.27,1.67-.76.57-.48,1.46-1.86,2.06-3.2.27-.6.61-1.33.77-1.62l.29-.52,4.2-2.91,4.21-2.91.33.29c1.87,1.7,3.22,2.42,5.28,2.83,2.25.45,3.82.49,6.58.17,1.69-.2,2.47-.34,3.6-.66,1.81-.51,3.85-1.54,5.01-2.53.64-.54,1.53-1.54,2-2.23.25-.36.45-.6.5-.59.04.01,2.15.8,4.68,1.76l4.6,1.74.44.36c.56.45.9.88,1.49,1.81.57.91.91,1.27,1.67,1.79,1.65,1.14,2.7,1.35,3.68.74.47-.3.9-.85,1.1-1.43.29-.86.36-1.67.31-3.38-.02-.62-.01-1.08.03-1.14.03-.05.45-.52.93-1.04,1.62-1.76,2.07-2.66,1.86-3.74-.1-.54-.32-.9-.83-1.32-.58-.48-1.14-.7-2.25-.86-1.11-.16-2.14-.03-3.31.42-1.46.57-1.57.56-4.56-.42-1.25-.41-3.63-1.19-5.28-1.72l-2.99-.98-.07-.72-.07-.73,2.59-1.61c8.07-5.04,10.56-6.58,10.81-6.7.16-.07.49-.17.76-.22.42-.07.61-.07,1.4.02,1.03.12,1.48.09,2.7-.17.88-.19,1.44-.39,1.96-.72.73-.46,1.17-1.06,1.34-1.82.09-.44.08-1.09-.05-1.39-.18-.46-1.42-1.66-2.8-2.71l-.87-.67-.05-.4c-.11-.96-.67-2.67-1.18-3.64-.32-.62-.79-1.02-1.43-1.24-.45-.16-.49-.16-1.04-.09-.49.06-.64.1-.96.27-.51.27-1,.69-1.6,1.38-.64.73-.92,1.25-1.27,2.4-.31,1.04-.57,1.6-.94,2.1-.25.33-.4.44-1.44,1.11-.64.41-2.08,1.34-3.21,2.07l-2.05,1.32.19-.3c.45-.7.74-1.43.93-2.36.27-1.29.28-2.55.06-4.05-.14-.91-.2-1.18-.56-2.25l-.4-1.22.2-.25c.31-.38,1.08-1.54,1.38-2.09,1.53-2.76,2.22-5.61,2.16-8.9-.02-1.38-.45-3.93-.9-5.39-1.41-4.53-4.31-8.18-8.54-10.72-.73-.44-1.28-.7-2.07-.99-2.91-1.05-7.82-1.77-11.75-1.73-.8.01-4.43.36-5.11.49Zm5.42,1.34c4.2.03,9.23.86,11.56,1.92,1.12.51,3.11,1.91,4.21,2.95,2.53,2.4,4.12,5.25,4.91,8.77.21.95.44,3.02.44,3.92-.02,2.45-.55,4.7-1.6,6.79-.34.68-.94,1.69-.98,1.65-.01-.01-.12-.44-.23-.95-.25-1.1-.43-2.83-.38-3.65.02-.28.16-1.06.3-1.73.15-.67.3-1.49.35-1.81.16-1.28-.05-3.88-.38-4.69-.2-.5-.59-1.08-.94-1.38l-.3-.26-.5.63c-.64.79-.65.82-.43,1,.44.36.65,1.09.74,2.52.09,1.58.07,1.73-.36,3.78-.32,1.5-.35,1.84-.29,3.15.03.79.09,1.22.23,2.02.28,1.49.49,2.25,1.49,5.36.4,1.23.43,1.34.53,2.28.2,1.69.09,2.91-.37,4.12-.4,1.04-1.07,1.56-3.47,2.72-.55.27-1.26.66-1.59.87-.6.38-1.62,1.21-2.17,1.76-.67.68-1.32,2.04-1.45,3.05-.03.26-.05.75-.03,1.1l.04.62-.37.16c-1.59.68-3.33,1.08-6.66,1.52-3.47.47-5.7.54-7.47.25l-.47-.08-.08-.52c-.2-1.22-.7-2.21-1.59-3.12-.47-.49-.86-.76-1.63-1.19-1.04-.57-1.7-.8-2.92-1.04-1.87-.36-2.31-.47-3.04-.79-1.19-.51-1.87-1.39-2.46-3.16-.19-.56-.24-.81-.35-1.86l-.14-1.21.13-1.65c.25-2.99.27-3.96.13-5.57-.12-1.28-.32-2.39-.59-3.18-.1-.26-.41-.99-.72-1.61-.3-.62-.61-1.27-.67-1.46-.17-.44-.47-1.84-.57-2.67-.12-.99-.04-1.5.27-1.9l.14-.17-.72-.58-.71-.58-.25.34c-.29.4-.53,1.04-.6,1.63-.07.52.11,2.15.34,3.2.21.94.46,1.61,1.11,2.94.63,1.29.77,1.7.99,2.83.2,1.07.33,3.37.2,3.71-.02.06-.16-.05-.43-.36-2.39-2.64-4.13-6.64-4.6-10.59-.22-1.8-.11-3.49.34-5.33.85-3.44,2.86-6.69,5.44-8.76,2.72-2.18,7.2-4.03,12.05-4.98.44-.09.91-.18,1.06-.21s1.27-.16,2.51-.3c1.62-.17,2.47-.24,3.01-.24Zm31.04,29.66c.14.09.25.26.44.68.42.94.59,1.51.77,2.63.1.64.2,1.08.25,1.16.05.06.71.61,1.46,1.2.75.59,1.55,1.26,1.75,1.48.36.38.39.42.37.63-.03.52-.64.92-1.76,1.17-1.08.24-1.48.27-2.38.15-.71-.1-.88-.1-1.52-.02-.89.1-1.37.29-2.32.86-.37.22-3.27,2.03-6.46,4.02l-5.8,3.62-.04-.19c-.05-.26-.01-1.31.08-2.04.08-.65.37-2.04.51-2.5l.09-.29,5.02-3.24,5.02-3.24.43-.51c.55-.65.85-1.2,1.17-2.15.65-1.92.62-1.85.98-2.27.95-1.13,1.47-1.44,1.92-1.14Zm-60.85,7.45c.53.19,1.19.65,1.54,1.1.15.18.53.73.85,1.23.64.99,1.18,1.58,1.81,1.99.43.28,1.69.79,4.28,1.72,2.47.89,7.44,2.58,7.54,2.57.05,0,.1.03.13.08.02.06.24.5.48.98.65,1.32,1.03,2.36,1.22,3.32l.09.48-.69-.24c-.38-.13-1.75-.6-3.04-1.05-2.57-.9-6.29-2.16-9.05-3.08-1.6-.53-1.83-.59-2.32-.61-.71-.03-1.65.12-2.79.45-1.06.31-1.93.43-2.66.35-.99-.11-1.5-.3-1.53-.62-.03-.21.21-.78.53-1.27.14-.23.66-.85,1.14-1.4s.92-1.08.97-1.2c.12-.25.12-.59.05-2.06-.05-.95.02-1.85.17-2.25.04-.1.15-.29.25-.42.16-.22.19-.24.39-.23.12,0,.42.08.66.16Zm44.51,4.61c-.57,2.12-.85,4.17-.72,5.43.03.29.14.8.25,1.17.14.49.22.93.32,1.77.23,1.95.1,3.55-.39,4.91-.67,1.85-1.96,3.63-3.44,4.73-.7.52-2.16,1.25-3.34,1.66-1.15.4-3.17.75-5.18.9-1.77.13-2.97.06-4.68-.28-1.46-.28-2.25-.66-3.56-1.7-1.6-1.26-2.61-2.57-3.21-4.15-.67-1.8-.97-3.7-.84-5.41.09-1.15-.72-3.5-2.01-5.88-.17-.31-.3-.58-.29-.6.05-.06.68.1.72.18.02.05.25.46.5.91,1.43,2.6,2.3,4.83,3.06,7.84l.19.75.78.6c2.11,1.6,4.4,2.2,8.05,2.1,1.25-.04,3.82-.35,4.67-.57,3.32-.87,6.03-2.58,6.89-4.34.17-.34.19-.45.19-.96.01-2.43.2-4.2.67-6.44.21-.99.69-2.88.76-2.96.04-.05.66-.39.73-.4.03,0-.03.32-.13.72Zm-24.37,3.5c1.22.69,1.89,1.58,2.14,2.86l.09.46.31.12.3.12.16,1.68c.09.92.21,2.11.28,2.66l.11.97-.39-.3c-.21-.17-.4-.34-.43-.39-.02-.04-.18-.63-.36-1.3s-.43-1.52-.55-1.89c-.44-1.32-1.28-3.24-2.03-4.66-.2-.39-.35-.7-.32-.69.02,0,.33.17.67.36Zm22.39-2.3c-.21.85-.57,2.67-.69,3.55-.17,1.2-.22,1.84-.26,3.34-.03,1.45-.06,1.57-.4,1.99l-.17.21-.25-1.86c-.14-1.02-.3-2.22-.36-2.67l-.1-.81.32-.21c.35-.22.38-.3.32-.79-.07-.61.16-1.49.56-2.13.21-.33,1.07-1.24,1.13-1.18.02,0-.03.26-.11.56Zm-2.72,5.52l.11.92-.23.18c-.29.24-.88.62-.96.63-.04,0-.11-.41-.2-1.27l-.13-1.28.58-.25.58-.24.06.2c.04.11.11.61.17,1.12Zm-15.35.7l.55.1.15,1.29.15,1.29-.44-.16c-.24-.09-.54-.21-.68-.28l-.24-.11-.12-1.13c-.11-1.02-.12-1.13-.03-1.11.05,0,.35.06.65.12Zm13.41.11l.16,1.34-.26.12c-.28.13-.77.32-1.03.42l-.16.05-.17-1.47c-.13-1.14-.16-1.47-.1-1.48.03,0,.35-.09.69-.19.35-.09.64-.16.67-.16.02,0,.11.62.2,1.36Zm-11.36.08c.19,0,.44,0,.54,0l.19-.02.17,1.47c.1.81.16,1.47.13,1.47-.06,0-.78-.1-1.15-.17l-.27-.05-.18-1.36-.17-1.37h.19c.11.01.35.02.54.04Zm9.17.54c.11.82.19,1.5.18,1.5,0,.01-.26.08-.58.16l-.57.14-.18-1.49-.18-1.53s.19-.08.44-.13c.25-.05.5-.09.57-.11l.13-.03.19,1.48Zm-6.47-.6s.09.7.19,1.54l.16,1.53h-.61c-.34,0-.62-.02-.63-.03s-.09-.69-.16-1.51l-.13-1.49.59-.03c.32-.01.59-.02.6-.01Zm1.7-.16l.57-.07.18,1.56.18,1.56-.75.09-.75.09-.19-1.59-.19-1.6.18.02c.1,0,.44-.02.75-.05Zm2.88,1.15c.14,1.18.16,1.54.11,1.56-.04.02-.35.07-.69.12l-.61.09-.19-1.57-.18-1.57.69-.08.69-.08.18,1.53Zm-8.22,3.61c.08.71.13,1.29.11,1.29-.05,0-.81-.31-1.09-.46l-.25-.13-.13-1.22-.13-1.21.66.22.66.23.16,1.28Zm14.61-2.36l.13,1.26-.43.33c-.24.18-.5.36-.58.4l-.15.08-.17-1.27-.17-1.27.57-.38c.31-.21.59-.38.61-.39.02,0,.1.56.18,1.24Zm-1.9,1.18l.16,1.32-.68.31c-.38.17-.69.31-.69.3,0,0-.1-.6-.2-1.34l-.2-1.33.25-.09c.21-.08,1.17-.47,1.2-.49,0,0,.08.59.17,1.32Zm-11.31.24c.54.09.69.14.69.21,0,.05.07.65.14,1.32l.13,1.22-.16-.02c-.09-.01-.43-.07-.76-.13l-.59-.11-.13-1.29c-.08-.81-.11-1.3-.07-1.3.04,0,.37.04.74.11Zm9.19.58l.16,1.38-.41.12c-.23.07-.5.15-.59.18l-.19.05-.17-1.41-.17-1.41.47-.11c.26-.06.52-.12.6-.13l.13-.02.16,1.37Zm-6.84-.43h.36s.16,1.34.16,1.34c.12,1.04.14,1.35.09,1.36-.07,0-.61,0-1.03-.03h-.19s-.16-1.34-.16-1.34l-.16-1.33h.28c.15,0,.44,0,.64,0Zm4.91.87c.14,1.23.15,1.41.08,1.45-.05.02-.36.08-.69.12l-.6.07-.17-1.41-.17-1.41.56-.09c.3-.04.61-.1.69-.11l.13-.03.17,1.41Zm-2.13.34l.17,1.37-.62.05c-.35.03-.68.05-.76.04h-.14s-.16-1.36-.16-1.36l-.16-1.35.74-.06.73-.06.18,1.38Zm-13.34,2.22c.27.79.59,1.47,1.03,2.16.2.32.37.59.39.6s-1.81,1.29-4.04,2.84c-2.24,1.54-4.18,2.89-4.32,3-.37.3-.89,1.22-1.65,2.93-.44,1-1.17,2.13-1.58,2.48-.28.23-.67.35-.87.27-.07-.03-.21-.16-.32-.3-.17-.23-.21-.37-.47-1.51-.32-1.41-.64-2.53-.8-2.79-.06-.09-.81-.7-1.67-1.34-1.7-1.28-1.87-1.45-1.88-1.91,0-.3.16-.62.37-.72.35-.19,1.19-.43,1.7-.49.45-.05.7-.04,1.35.05,1.5.21,2.69.02,3.93-.64.96-.52,2.31-1.3,3.47-2.02.98-.61,4.51-2.96,4.9-3.27.21-.16.18-.19.47.65Zm29.44-3.39c6.06,1.99,8.13,2.65,8.5,2.72.87.16,1.89.02,3-.41.36-.14.84-.29,1.06-.34.96-.2,2.56.13,2.87.59.1.15.1.18.01.42-.13.4-.57.97-1.52,2-1.09,1.18-1.28,1.43-1.31,1.7-.02.12-.02.81,0,1.55.05,1.94-.04,2.68-.38,3.11-.15.19-.2.22-.38.21-.28-.01-.89-.33-1.56-.82-.51-.37-.55-.41-1.16-1.34-.77-1.16-1.16-1.61-1.93-2.21l-.58-.46-4.61-1.74c-2.53-.95-4.63-1.75-4.67-1.76-.03-.02.05-.34.2-.79.31-.92.44-1.5.5-2.37.03-.37.06-.67.06-.67,0,0,.85.28,1.88.61Z" style="fill: #52b848; stroke-width: 0px;"/>
        <path d="m126.06,633.98s-.7.2-1.53.4c-1.57.38-3.53.89-4.22,1.11-1.19.37-2.13,1.25-2.5,2.34-.2.58-.24.96-.17,1.56s.2.88,1.05,2.39c.37.65.73,1.32.82,1.49.38.75,1.63,1.75,2.64,2.12,1.33.49,2.56.38,3.55-.29,1.18-.82,3.75-5.43,3.98-7.18.07-.5-.08-1.5-.29-2.02-.4-.98-1-1.59-1.81-1.88-.34-.12-.48-.14-.95-.1-.3.02-.56.05-.58.07Z" style="fill: #52b848; stroke-width: 0px;"/>
        <path d="m137.98,632.62c-.83.3-1.48,1.2-1.7,2.33-.1.53-.05,1.44.12,1.99.3,1.05,2.12,3.35,4.09,5.17.91.85,1.61,1.2,2.52,1.29.51.05.94-.04,1.6-.29,1.54-.6,2.64-1.88,3.12-3.64.68-2.45.79-2.89.81-3.18.12-1.65-1.08-3.18-2.83-3.61-.54-.13-2-.19-5.28-.2-1.7-.01-2.08.01-2.45.15Z" style="fill: #52b848; stroke-width: 0px;"/>
        <path d="m132.48,642.91c-.64.67-1.07,1.25-1.46,2.02-.76,1.46-1.01,2.71-.91,4.51.09,1.64.61,3.07,1.25,3.46.57.33,1.31-.18,2.3-1.6l.38-.54-.47-4.18c-.31-2.75-.49-4.18-.53-4.19-.03,0-.28.22-.56.51Z" style="fill: #52b848; stroke-width: 0px;"/>
        <path d="m134.14,642.3s.2,1.93.49,4.2l.53,4.13.31.31c.55.53,1.4,1.13,1.83,1.29.55.19.8.13,1.08-.27.46-.64.56-1.63.33-3.17-.24-1.63-.48-2.32-1.21-3.46-.65-1.02-1.43-1.85-2.27-2.4-.92-.6-1.06-.68-1.09-.61Z" style="fill: #52b848; stroke-width: 0px;"/>
        <circle cx="98.79" cy="492.42" r="10.79" style="fill: url(#linear-gradient-27); opacity: .75; stroke-width: 0px;"/>
        <path d="m93.52,486.46c3.83-4.7,11.64-1.73,12.25,2.31" style="fill: none; opacity: .25; stroke: #fff; stroke-linecap: round; stroke-linejoin: round;"/>
        <path d="m121.54,503.22l.58-1.51c.9-2.35,3.34-3.73,5.82-3.28l34.77,6.28c2.61.47,4.45,2.81,4.29,5.46h0" style="fill: none; opacity: .25; stroke: #fff; stroke-linecap: round; stroke-linejoin: round;"/>
        <path d="m124.03,524.8c-.46,3.32,2.18,4.7,3.67,2.41" style="fill: none; opacity: .25; stroke: #fff; stroke-linecap: round; stroke-linejoin: round;"/>
        <path d="m139.99,531.92c.63,4.35,3.72,4.87,5.1,2.58" style="fill: none; opacity: .25; stroke: #fff; stroke-linecap: round; stroke-linejoin: round;"/>
        <path d="m157.12,528.08c.69,1.89,2.18,2.29,3.27.92" style="fill: none; opacity: .25; stroke: #fff; stroke-linecap: round; stroke-linejoin: round;"/>
        <g>
          <path d="m138.97,544.29c-3.34.23-6.36,2.2-8.57,4.72-2.21,2.52-3.71,5.56-5.18,8.56-.51-2.54-.65-5.16-.4-7.74.04-.42.09-.86.3-1.24.24-.46.68-.78,1.1-1.08,1.72-1.23,3.51-2.41,5.5-3.13,1.99-.72,4.22-.95,6.22-.25" style="fill: #ea1b39; stroke-width: 0px;"/>
          <path d="m137.19,543.14c2.54,2.73,4.19,6.23,4.95,9.88s.66,7.45-.02,11.12c1.56-1.26,3.03-2.64,4.37-4.14.19-.21.38-.43.44-.7.06-.26,0-.53-.05-.78-.23-1.09-.46-2.19-.69-3.28-.66-3.15-1.38-6.41-3.32-8.97-.94-1.24-2.27-2.32-3.82-2.37" style="fill: #ea1b39; stroke-width: 0px;"/>
          <path d="m141.45,540.8c.97-.64,2.21-.71,3.37-.59s2.3.41,3.46.41c2.92,0,5.81-1.79,8.62-.99-.22,1.44-.72,2.83-1.21,4.2-1.08,3.01-2.18,6.04-3.88,8.75-.25.39-.54.8-.98.94-.49.15-1.02-.08-1.45-.36-1.83-1.17-2.99-3.15-4.71-4.48-1.12-.86-2.43-1.43-3.77-1.87-.4-.13-.86-.31-.97-.72-.07-.23,0-.48.08-.71.39-1.23.78-2.46,1.17-3.69" style="fill: #ea1b39; stroke-width: 0px;"/>
          <path d="m140.73,542.05c.99-2.12,3.42-3.2,5.74-3.52s4.69-.07,7-.44c.78-.12,1.59-.32,2.35-.1s1.43,1.03,1.14,1.77c-1.07-.15-2.16-.2-3.22-.05-.97.14-1.9.46-2.85.69-2.8.67-5.71.59-8.59.5" style="fill: #7b1225; stroke-width: 0px;"/>
          <path d="m136.35,538.53c-4.09-1.91-7.78-4.62-10.67-7.84-.14-.16-.31-.33-.53-.37-.19-.03-.36.05-.51.15-1.84,1.27-.61,4.22-1.89,5.95-.63.85-1.78,1.27-2.61,1.96-.25.21-.49.5-.4.82.08.28.37.48.65.64.96.56,2.02.94,3.06,1.31,2.19.78,4.37,1.57,6.56,2.35.81.29,1.62.58,2.46.73,1.01.18,2.04.15,2.97-.08.23-.06.47-.14.62-.3.15-.17.18-.41.2-.64.13-1.43.25-2.86.38-4.29" style="fill: #ea1b39; stroke-width: 0px;"/>
          <path d="m136.53,538.87c-4.02-1.48-7.74-3.77-10.72-6.6-.36-.35-.73-.72-.87-1.15s0-.92.45-1.06c.27-.08.6-.02.91.05,1.74.45,3.26,1.53,4.55,2.7,1.29,1.17,2.44,2.45,3.82,3.54.77.6,1.65,1.18,2.05,1.98" style="fill: #7b1225; stroke-width: 0px;"/>
          <path d="m135.37,538.42c.17-.23.53-.17.81-.08,1.97.62,3.91,1.33,5.82,2.12.23.1.47.2.64.38.26.28.32.7.32,1.09,0,.77-.19,1.54-.54,2.23-.19.37-.43.73-.78.96-.71.46-1.64.29-2.46.09-1.24-.29-2.48-.59-3.72-.88-.64-.15-1.38-.4-1.56-1.03-.07-.26-.03-.54.02-.81.19-1.01.46-2,.81-2.96" style="fill: #7b1225; stroke-width: 0px;"/>
        </g>
      </g>
      <path d="m301.87,546.29s-36.79,20.91-33.17,43.88,24.18,39.89,35.06,30.22,7.25-25.39,13.3-27.8,11.39-1.6,11.39-1.6l-26.58-44.7Z" style="fill: #ea1b39; stroke-width: 0px;"/>
      <path d="m29.95,603.97s17.53,20.6,27.82,20.6,10.07-3.18,15.38.53,12.19-23.32,11.66-28.62-7.42-14.84-11.13-14.31-4.33-3.26-4.33-3.26l-39.4,25.07Z" style="fill: #ea1b39; stroke-width: 0px;"/>
    </g>
  </g>
</svg>