<?xml version="1.0" encoding="UTF-8"?>
<svg id="Layer_3" data-name="Layer 3" xmlns="http://www.w3.org/2000/svg" width="800" height="927.75" xmlns:xlink="http://www.w3.org/1999/xlink" viewBox="0 0 800 927.75">
  <defs>
    <linearGradient id="linear-gradient" x1="42.78" y1="886.02" x2="190.38" y2="886.02" gradientUnits="userSpaceOnUse">
      <stop offset="0" stop-color="#2dabe2"/>
      <stop offset="1" stop-color="#385caa"/>
    </linearGradient>
    <linearGradient id="linear-gradient-2" x1="378.17" y1="915.13" x2="378.17" y2="1186.22" xlink:href="#linear-gradient"/>
    <linearGradient id="linear-gradient-3" x1="411.14" y1="-9.29" x2="411.14" y2="459.13" xlink:href="#linear-gradient"/>
    <linearGradient id="linear-gradient-4" x1="-3448.93" y1="356.01" x2="-3448.93" y2="556.49" gradientTransform="translate(-3044.78) rotate(-180) scale(1 -1)" gradientUnits="userSpaceOnUse">
      <stop offset="0" stop-color="#2dabe2"/>
      <stop offset=".67" stop-color="#3573b9"/>
      <stop offset="1" stop-color="#395daa"/>
    </linearGradient>
  </defs>
  <path d="m172.33,846.84c-.2-7.05,1.72-15.18,6.53-24.2,19.17-35.93-39.72-53.84-39.72-31.23s21.36,12.33,21.36,12.33c-1.26,23.3-46.03,34.26-62.38,0-7.05-14.76-8.15-26.21-4.29-36.93h0c2.32-5.29-26.05,13.81-35.5,65.04-4.78,25.95-15.54,72.48-15.54,104.93s30.22,45.34,43.86,61.94c13.64,16.6,83.32,1.19,99.67-8.39,16.35-9.58-22.27-126.65-13.98-143.5Z" style="fill: url(#linear-gradient); stroke-width: 0px;"/>
  <path d="m628.8,760.51c-14.79,8.81-28.2,5.76-31.2,4.91-.13.18-.27.36-.4.55,2.29,7.66,21.04,73.54-.97,104.12-3.91,5.43-7.89,8.67-11.82,10.31,3.41,7.67,3.47,11.09.06,14.22-6.77,6.22-54.5,41.72-54.5,41.72l42.89,94.66s40.12-18.09,55.45-20.59c15.33-2.5,46.11-24.11,58.08-43.52,15.77-25.59,5.16-86.38.73-120.14-4.16-31.7-40.09-104.35-58.33-86.23Z" style="fill: #395daa; stroke-width: 0px;"/>
  <path d="m169.9,811.5c0,38.47-19.23,76.94-19.23,96.17s19.23,38.47,0,57.7c-19.23,19.23-20.05,64.6-10.36,79.68,9.69,15.07-50.64,70.03,5.72,112.66,56.35,42.63,329.29,47.63,329.29,47.63l156.2-47.63s7.54-6.7-.58-33.63c-8.11-26.93-24.41-53.15-23.7-61.65.71-8.5,9.21-28.71,7.09-36.33s-2.13-28.87-2.13-34.54-9.35-83.62-12.82-111.26c-3.48-27.64-36.43-53.15-36.43-53.15l-393.04-15.65Z" style="fill: url(#linear-gradient-2); stroke-width: 0px;"/>
  <path d="m630.94,1124.09c-8.11-26.93-24.41-53.15-23.7-61.65.71-8.5,9.21-28.71,7.09-36.33-2.13-7.61-2.13-28.87-2.13-34.54s-9.35-83.62-12.82-111.26c-3.48-27.64-36.43-53.15-36.43-53.15l-398.17-63.73c-16.7-1.88-14.1,125.01-14.1,144.25s19.23,38.47,0,57.7c-19.23,19.23-20.05,64.6-10.36,79.68,9.69,15.07-50.64,70.03,5.72,112.66,56.35,42.63,397.3,39.27,397.3,39.27l88.19-39.27s7.54-6.7-.58-33.63Zm-293.93,8.85c-27.09,3.45-79.35,30.67-102.88,22.03-23.53-8.65,2.14-41.39-9.99-88.16-12.12-46.77-29.77-73.19-.37-86.94,29.4-13.75,38.81-3.97,56.81,8.17s51.34-42.62,66.59-23.76c15.25,18.86-11.5,27.57-11.5,27.57,0,0,30.5,9.67,41.4-19.38,0,0,5.02,7.14,12.58,13.53,7.56,6.39,18.75,5.85,18.75,5.85.85,40.96,18.03,103.59,17.96,115.55-.08,11.96-62.25,22.09-89.33,25.54Z" style="fill: #1c2538; opacity: .2; stroke-width: 0px;"/>
  <path d="m131.81,491.16c-27.3-25.84-2.16-127.36,54.5-166.93,37.03-25.86,31.86-32.49,4.23-47.87-27.64-15.37-7.66-44.36,45.86-70.89,53.52-26.52,12.97-107.02,12.97-107.02,0,0,193.71,42.81,196.65,83.41,2.55,35.17,11.86,46.33,23.46,52.6,15.88,8.58,93.47-9.53,108.44,46.24,21.37,79.65,179.45,128.67,102.82,224.7" style="fill: url(#linear-gradient-3); stroke-width: 0px;"/>
  <g style="opacity: .2;">
    <path d="m696.19,480.05l-217.21-19.08s-102.31-57.47-116.63-53.96c-14.32,3.51-46.21,8.55-81.84-4.88-35.62-13.43-59.68,24.58-94.21,24.58s-30.68-71.53,0-92.91c30.68-21.38,61.05-43.03,33.42-64.15-11.32-8.66-24.87-19.48-33.11-29.31-12.11,14.41-11.64,27.38,3.92,36.04,27.64,15.37,32.81,22.01-4.23,47.87-56.66,39.57-81.79,141.09-54.5,166.93l548.92,14.24c7.05-8.83,12.09-17.26,15.46-25.36Z" style="fill: #1c2538; stroke-width: 0px;"/>
    <path d="m236.39,205.48c-4.39,2.18-8.53,4.37-12.46,6.57,40.29-5.79,48.94-29.48,49.66-62.44.72-33.22.4-27.68,5.02-44.1-5.13-1.3-9.75-2.45-13.72-3.41l-12.57,2.93c8.28,19.74,28.31,78.53-15.92,100.45Z" style="fill: #1c2538; stroke-width: 0px;"/>
  </g>
  <circle cx="231.95" cy="89.76" r="41.64" style="fill: #385caa; stroke-width: 0px;"/>
  <path d="m190.46,93.23c1.76,21.38,19.66,38.18,41.49,38.18,23,0,41.64-18.64,41.64-41.64,0-3.07-.34-6.06-.97-8.94-16.34,33.49-55,34.09-82.15,12.4Z" style="fill: #223654; opacity: .3; stroke-width: 0px;"/>
  <g style="opacity: .4;">
    <path d="m206.53,68.78c4.1-17.8,34.04-21.3,43.03-5.87-8.08-.49-14.4-.05-21.93.79-7.5.98-13.57,2.08-21.1,5.08h0Z" style="fill: #fff; stroke-width: 0px;"/>
  </g>
  <path d="m140.9,565.26c-44.25,14.41-53.85,59.64-46.99,90.47,6.85,30.84-43.8,32.89-39.37,8.91,0,0-18.19,11.65,10.59,30.84s49.34,8.91,61.67-23.98c0,0,41.8,19.98,6.17,50.77-35.63,30.78-51.22,47.23-34.86,81.49,16.36,34.26,61.13,23.3,62.38,0,0,0-21.36,10.28-21.36-12.33s58.89-4.7,39.72,31.23c-19.17,35.93,7.56,57.65,30.86,53.64,23.3-4.01,48.82-6.11,66.47,28.2,12.33,23.98,35.93,26.73,49.34,16.78,13.41-9.95,34.26-20.89,47.28-9.25,13.02,11.65,6.17,25.49-3.43,21.65,0,0,19.4,12.87,32.43-7.88,0,0,18.5,48.49,58.14,28.67,0,0-31.26-28.05.76-45.86,32.02-17.82,59.71-10.96,65.05-39.06,5.34-28.1,28.43-37.32,43.72-28.78,15.29,8.54,4.35,37.8-11.6,23.98,0,0,23.99,48.76,57.2,19.58,33.2-29.18,17.4-103.87,17.4-103.87,0,0,28.82,12.07,58.97-11.78,30.15-23.85,1.46-60.75,1.46-60.75,0,0-3.16,28.1-17.04,14.33-13.88-13.76,12.33-28.04,29.37-36.32s22.01-46.65,0-61.04c-22.01-14.39-5.57-41.16-36.4-59.64-30.84-18.48-177.05-99.34-177.05-99.34l-227.94,10.28-122.95,89.06Z" style="fill: #223754; stroke-width: 0px;"/>
  <path d="m398.47,640.7c-29.77,0-69.77-28.73-77.77-19.43-8,9.3,19.92,65.29,79.55,65.29s84.03-51.23,77.77-59.2c-11.73-14.93-38.05,13.33-79.56,13.33Z" style="fill: #916944; stroke-width: 0px;"/>
  <path d="m235.41,528.51c-18.3,65.47,57.03,41.99,77.44,58.89,20.42,16.9,28.4,34.16,89.28,34.16s65.6-20.08,78.98-35.56c13.38-15.49,87.3-1.86,81.67-51.85-5.63-49.99-177.28-47.87-177.28-47.87l-150.08,42.24Z" style="fill: #916944; stroke-width: 0px;"/>
  <g>
    <path d="m209.72,876.28c23.3-4.01,48.82-6.11,66.47,28.2,12.33,23.98,35.93,26.73,49.34,16.78,13.41-9.95,34.26-20.89,47.28-9.25,3.42,3.06,5.44,6.26,6.43,9.27,0,0,0-.01,0-.02,9.51-24.43-21.15-32.34-46.63-17.79-25.48,14.56-52.41,10.19-59.03-6.73-6.63-16.92-.65-45.68-27.58-49.52-26.93-3.84-61.14,5.3-51.94-29.64,9.2-34.94-14.29-56.77-45.99-56.05-31.7.73-44,40.76-10.23,63.37,12.13-2.22,22.07-10.36,22.66-21.17,0,0-21.36,10.28-21.36-12.33s58.89-4.7,39.72,31.23c-19.17,35.93,7.56,57.65,30.86,53.64Z" style="fill: #1c2538; stroke-width: 0px;"/>
    <path d="m401.94,915.13s-8.88,18.95-20.38,22.45c6.33.37,14.01-1.85,20.25-11.78,0,0,18.5,48.49,58.14,28.67,0,0-.16-.14-.42-.39-34.7,6.55-57.59-38.94-57.59-38.94Z" style="fill: #1c2538; stroke-width: 0px;"/>
    <path d="m595.23,758.38c16.68,60.67-19.13,101.16-19.13,101.16,0,0,.04-.23.05-.64-2.16,7.93-9.44,13.48-18.27,5.83,0,0,23.99,48.76,57.2,19.58s17.4-103.87,17.4-103.87c0,0,28.82,12.07,58.97-11.78,30.15-23.85,1.46-60.75,1.46-60.75,0,0,20.15,41.9-13.29,57.07-33.45,15.17-84.39-6.61-84.39-6.61Z" style="fill: #1c2538; stroke-width: 0px;"/>
    <path d="m672.07,712.8c1.47-10.53,20.03-20.48,33.18-26.86,17.05-8.28,22.01-46.65,0-61.04-10.86-7.1-12.36-17.21-14.79-27.84-1.65,4.13-2.93,8.59-3.05,12.77-.39,12.83,19.06,32.67,7.39,51.72-11.23,18.35-26.78,33.81-22.72,51.25Z" style="fill: #1c2538; stroke-width: 0px;"/>
    <path d="m525.76,869.53c3.71-19.53,16-29.92,28.29-31.59-.02,0-.03,0-.05-.01-24.5-6.79-33.83,37.9-47.3,43.73-13.47,5.83-56.99,17.8-58.87,39.6,0,0,0,0,0,0,1.95-4.45,5.92-8.8,12.88-12.68,32.02-17.82,59.71-10.96,65.05-39.06Z" style="fill: #1c2538; stroke-width: 0px;"/>
  </g>
  <g>
    <path d="m345.12,647.22l5.73,2.4c4.91,2.06,10.17,3.11,15.49,3.11h65.79c5.46,0,10.87-1.12,15.88-3.28l5.18-2.23h0c-7.44,7.02-17.28,10.93-27.51,10.93h-52.93c-9.35,0-18.41-3.27-25.61-9.24l-2.03-1.68Z" style="fill: #7b1225; stroke-width: 0px;"/>
    <path d="m369.88,667.25c11.84,3.19,43.26,4.1,56.46,0,0,0-10.92,9.11-27.55,9.11s-28.92-9.11-28.92-9.11Z" style="fill: #1c2538; opacity: .4; stroke-width: 0px;"/>
    <path d="m448.56,637.13c0,3.2,4.63,15.8,14.12,15.49l-14.12-15.49Z" style="fill: #1c2538; opacity: .4; stroke-width: 0px;"/>
    <path d="m349.78,637.13c0,3.2-4.63,15.8-14.12,15.49l14.12-15.49Z" style="fill: #1c2538; opacity: .4; stroke-width: 0px;"/>
  </g>
  <ellipse cx="398.35" cy="553.65" rx="59.77" ry="53.52" style="fill: #805124; stroke-width: 0px;"/>
  <path d="m384.18,256.4l11.32,22.95c.51,1.04,1.51,1.76,2.66,1.93l25.32,3.68c2.89.42,4.05,3.98,1.95,6.02l-18.32,17.86c-.83.81-1.21,1.98-1.01,3.12l4.33,25.22c.49,2.88-2.53,5.08-5.12,3.72l-22.65-11.91c-1.03-.54-2.25-.54-3.28,0l-22.65,11.91c-2.59,1.36-5.61-.84-5.12-3.72l4.33-25.22c.2-1.14-.18-2.31-1.01-3.12l-18.32-17.86c-2.09-2.04-.94-5.59,1.95-6.02l25.32-3.68c1.15-.17,2.14-.89,2.66-1.93l11.32-22.95c1.29-2.62,5.03-2.62,6.32,0Z" style="fill: #ebbb1e; stroke-width: 0px;"/>
  <path d="m505.54,279.82l16.45,33.34c.75,1.51,2.19,2.56,3.86,2.8l36.79,5.35c4.2.61,5.88,5.78,2.84,8.74l-26.62,25.95c-1.21,1.18-1.76,2.87-1.47,4.54l6.28,36.64c.72,4.19-3.68,7.38-7.43,5.4l-32.91-17.3c-1.49-.78-3.28-.78-4.77,0l-32.91,17.3c-3.76,1.98-8.15-1.22-7.43-5.4l6.28-36.64c.29-1.66-.27-3.36-1.47-4.54l-26.62-25.95c-3.04-2.96-1.36-8.13,2.84-8.74l36.79-5.35c1.67-.24,3.11-1.29,3.86-2.8l16.45-33.34c1.88-3.81,7.31-3.81,9.19,0Z" style="fill: #ebbb1e; stroke-width: 0px;"/>
  <path d="m651.12,560.67c-33.1-16.38-125.45-65.09-242.65-65.09s-214.71,50.02-249.35,65.91c-1.57.72-3.2,1.17-4.84,1.38h0s-.41,16.11,23.67,16.11,126.58-47.79,249.31-47.79,211.96,70.51,240.74,31.84l-3.19-1.83c-4.29,1.73-9.26,1.68-13.7-.52Z" style="fill: #1c2538; opacity: .2; stroke-width: 0px;"/>
  <path d="m346.39,217.83l4.55,9.21c.21.42.6.71,1.07.77l10.16,1.48c1.16.17,1.62,1.6.78,2.41l-7.35,7.17c-.33.33-.49.79-.41,1.25l1.74,10.12c.2,1.16-1.02,2.04-2.05,1.49l-9.09-4.78c-.41-.22-.91-.22-1.32,0l-9.09,4.78c-1.04.55-2.25-.34-2.05-1.49l1.74-10.12c.08-.46-.07-.93-.41-1.25l-7.35-7.17c-.84-.82-.38-2.25.78-2.41l10.16-1.48c.46-.07.86-.36,1.07-.77l4.55-9.21c.52-1.05,2.02-1.05,2.54,0Z" style="fill: #ebbb1e; stroke-width: 0px;"/>
  <path d="m447.28,235.56l4.55,9.21c.21.42.6.71,1.07.77l10.16,1.48c1.16.17,1.62,1.6.78,2.41l-7.35,7.17c-.33.33-.49.79-.41,1.25l1.74,10.12c.2,1.16-1.02,2.04-2.05,1.49l-9.09-4.78c-.41-.22-.91-.22-1.32,0l-9.09,4.78c-1.04.55-2.25-.34-2.05-1.49l1.74-10.12c.08-.46-.07-.93-.41-1.25l-7.35-7.17c-.84-.82-.38-2.25.78-2.41l10.16-1.48c.46-.07.86-.36,1.07-.77l4.55-9.21c.52-1.05,2.02-1.05,2.54,0Z" style="fill: #ebbb1e; stroke-width: 0px;"/>
  <path d="m361.67,171.48l2.84,5.75c.13.26.38.44.67.48l6.35.92c.73.11,1.01,1,.49,1.51l-4.59,4.48c-.21.2-.3.5-.25.78l1.08,6.32c.12.72-.63,1.27-1.28.93l-5.68-2.99c-.26-.14-.57-.14-.82,0l-5.68,2.99c-.65.34-1.41-.21-1.28-.93l1.08-6.32c.05-.29-.05-.58-.25-.78l-4.59-4.48c-.52-.51-.24-1.4.49-1.51l6.35-.92c.29-.04.54-.22.67-.48l2.84-5.75c.32-.66,1.26-.66,1.59,0Z" style="fill: #ebbb1e; stroke-width: 0px;"/>
  <path d="m336.25,133.95l2.09,4.23c.09.19.28.32.49.36l4.67.68c.53.08.75.73.36,1.11l-3.38,3.29c-.15.15-.22.36-.19.58l.8,4.65c.09.53-.47.94-.94.69l-4.18-2.2c-.19-.1-.42-.1-.61,0l-4.18,2.2c-.48.25-1.03-.15-.94-.69l.8-4.65c.04-.21-.03-.43-.19-.58l-3.38-3.29c-.39-.38-.17-1.03.36-1.11l4.67-.68c.21-.03.39-.16.49-.36l2.09-4.23c.24-.48.93-.48,1.17,0Z" style="fill: #ebbb1e; stroke-width: 0px;"/>
  <path d="m398.35,591.38c-30.01,0-54.85-19.81-59.12-45.63-.43,2.58-.65,5.21-.65,7.89,0,29.56,26.76,53.52,59.77,53.52s59.77-23.96,59.77-53.52c0-2.68-.23-5.32-.65-7.89-4.26,25.81-29.1,45.63-59.12,45.63Z" style="fill: #1b2538; opacity: .2; stroke-width: 0px;"/>
  <path d="m405.42,173.77l4.55,9.21c.21.42.6.71,1.07.77l10.16,1.48c1.16.17,1.62,1.6.78,2.41l-7.35,7.17c-.33.33-.49.79-.41,1.25l1.74,10.12c.2,1.16-1.02,2.04-2.05,1.49l-9.09-4.78c-.41-.22-.91-.22-1.32,0l-9.09,4.78c-1.04.55-2.25-.34-2.05-1.49l1.74-10.12c.08-.46-.07-.93-.41-1.25l-7.35-7.17c-.84-.82-.38-2.25.78-2.41l10.16-1.48c.46-.07.86-.36,1.07-.77l4.55-9.21c.52-1.05,2.02-1.05,2.54,0Z" style="fill: #ebbb1e; stroke-width: 0px;"/>
  <path d="m493.47,751.3c38.23,22.68,87.48-18.6,75.17-43.97,0,0,49.9-1,38.88-40.4,0,0,23.81,17.24,11.02,39.4-11.81,20.45-39.12,11.05-39.12,11.05,0,0,11.3,39.83-19.2,54.01-46.43,21.59-66.74-20.09-66.74-20.09Z" style="fill: #1c2538; stroke-width: 0px;"/>
  <path d="m184.18,643.6c-18.38,36.75,0,68,27.03,67.51,0,0-3,36.81,16.36,45.41s45.71-16.67,45.71-16.67c0,0,14.52,34.96,38.72,34.96s48.88-27.96,48.88-27.96c0,0,.58,51.28-43.52,53.97-44.1,2.69-44.08-52.36-44.08-52.36,0,0-23.85,41.53-58.01,28.89-36.62-13.55-11.36-59.75-11.36-59.75,0,0-34.55.25-42.09-25.72-7.92-27.28,22.37-48.28,22.37-48.28Z" style="fill: #1c2538; stroke-width: 0px;"/>
  <path d="m389.64,789.02c22.72,27.63,58.53,23,67.77-10.5,0,0,14.45,46.16-22.33,52.72-36.78,6.57-45.44-42.23-45.44-42.23Z" style="fill: #1c2538; stroke-width: 0px;"/>
  <path d="m506.7,743.22c27.03,1.13,50.56-14.08,51.18-42.23,0,0,37.23,3.96,43.42-34.06,0,0-7.37,18.86-23.39,22.23-16.02,3.38-32.6-.56-32.6-.56,0,0,6.76,19.39-9.32,36.6-16.08,17.21-29.28,18.02-29.28,18.02Z" style="fill: #395daa; opacity: .2; stroke-width: 0px;"/>
  <path d="m190.46,647.22c-6.68,19.37-9.43,48.45,24.76,55.92,0,0-1.55,36.56,17.34,44.02,18.89,7.47,42.01-14.94,42.01-14.94,0,0,17.01,34.76,39.7,34.59,22.69-.17,46.59-25.94,46.59-25.94,0,0-22.49,15.79-44.63,16.51-22.14.72-39.7-31.05-39.7-31.05,0,0-22.01,22.41-42.06,12.97-20.05-9.43-15.33-40.49-15.33-40.49,0,0-14.81-.79-25.09-18.87-10.28-18.08-3.6-32.73-3.6-32.73Z" style="fill: #395daa; opacity: .2; stroke-width: 0px;"/>
  <polygon points="455.35 428.68 478.22 423.76 478.22 429.93 498.76 420.98 503.42 438.49 537.75 423.76 537.75 432.37 555.04 432.37 555.04 436.1 577.93 436.1 570.76 440.98 586.51 440.98 586.51 451.03 601.6 446.72 601.6 457.15 616.67 457.15 616.67 462.71 635.32 462.71 635.32 470.51 653.25 470.51 653.25 474.69 674.77 474.69 670.47 481.87 680.49 485.97 699.53 483.3 680.62 489.26 703.8 489.26 696.29 497.65 703.8 511.59 698.68 511.59 703.76 541.94 694.14 523.47 693.42 547.17 688.4 533.51 686.97 559.34 679.59 554.32 674.77 568.66 655.4 557.9 648.68 568.66 617.45 556.07 603.7 559.69 591.94 539.43 572.77 543.05 566.62 517.55 553.05 552.09 538.25 514.16 533.01 530.81 521.59 510.15 516.97 523.72 504.94 511.59 502.82 513.6 503.09 521.56 487.05 511.59 481.24 516.72 470.95 509.01 460.67 514.58 455.35 507.57 430.24 520.58 430.24 505.5 416.95 518.86 407.71 505.5 392.2 521.01 379.23 505.5 364.66 514.58 350.94 508.46 331.23 523.58 311.9 513.88 315.37 526.58 296.09 516.72 296.09 524.01 284.52 518.86 284.52 534.72 273.8 521.85 264.8 535.58 251.09 527.01 238.23 539.86 232.69 533.49 224.09 547.17 215.51 538.58 207.8 547.17 205.23 554.66 195.09 547.17 186.97 557.87 186.97 552.29 175.66 564.72 169.23 557.44 166.23 562.42 156.25 561.6 146.08 576.29 146.08 555.98 122.94 552.29 137.58 541.94 125.45 538.58 129.76 528.49 104.51 509.86 126.8 509.86 125.45 494.77 131.69 503.5 146.51 475.58 149.34 490.78 155.08 469.15 165.37 477.91 171.8 467 174.8 472.58 179.74 458.86 186.97 469.93 198.38 455 204.8 461 208.23 436.1 224.94 453.72 233.09 444.29 235.83 451.03 245.94 436.1 234.8 431.86 252.37 436.1 254.52 445.15 261.8 427.11 272.09 436.1 277.23 431.86 278.09 438.72 287.09 436.1 287.09 421.57 294.37 433.57 305.52 424.57 305.09 433.57 316.66 428.86 315.8 407 324.81 425.43 329.09 433.15 340.51 417.29 340.51 430.32 362.35 407 360.64 431.26 369.89 414.46 375.03 428.52 381.54 418.92 382.92 427.11 390.08 410.69 398.46 423.72 408.62 413.44 408.62 402.13 414.1 414.46 409.99 421.32 418.9 423.03 418.9 406.58 422.67 420.29 422.67 428.17 443.58 408.3 437.75 427.49 455.35 419.95 455.35 428.68" style="fill: url(#linear-gradient-4); stroke-width: 0px;"/>
  <path d="m563.08,276.96c4.93,1.87,6.24,47.98,25.2,56.83,18.96,8.85,28.31,25.22,20.13,28.73-8.18,3.5-47.48-24.91-65.23-21.22-17.75,3.69-115.93-36.53-116.84-43.43-.91-6.9,55.02,6.73,67.12,11.73,12.1,5,48.77,18.37,49.72,0,.95-18.37,10.97-36.02,19.9-32.63Z" style="fill: #1c2538; opacity: .2; stroke-width: 0px;"/>
  <path d="m278.6,212.05c6.94-31.37,62.97-32.92,88.36-19.39,25.39,13.53,69.41-6.79,67.89,8.05-1.52,14.84,10.98,20.85,16.97,44.06,5.99,23.21-24.14-16.8-62.18-19.82-38.05-3.02-115.07,5.31-111.04-12.9Z" style="fill: #1c2538; opacity: .2; stroke-width: 0px;"/>
</svg>