<?xml version="1.0" encoding="UTF-8"?>
<svg id="Layer_2" data-name="Layer 2" xmlns="http://www.w3.org/2000/svg" width="800" height="927.75" xmlns:xlink="http://www.w3.org/1999/xlink" viewBox="0 0 800 927.75">
  <defs>
    <linearGradient id="linear-gradient" x1="-97.04" y1="1284.16" x2="-334.83" y2="1267.45" gradientTransform="translate(869.21 1976.99) rotate(-21.66) scale(1 -1)" gradientUnits="userSpaceOnUse">
      <stop offset="0" stop-color="#223654"/>
      <stop offset="1" stop-color="#385caa"/>
    </linearGradient>
    <linearGradient id="linear-gradient-2" x1="644.64" y1="1179.78" x2="824.69" y2="1179.78" gradientTransform="translate(1803.88 65.83) rotate(92.67) scale(1.17 1)" xlink:href="#linear-gradient"/>
    <linearGradient id="linear-gradient-3" x1="311" y1="1314.06" x2="311" y2="1007.6" gradientTransform="translate(102.23 -244.17) rotate(.14)" xlink:href="#linear-gradient"/>
    <linearGradient id="linear-gradient-4" x1="288.67" y1="824.5" x2="288.67" y2="1610.96" gradientTransform="translate(102.23 -244.17) rotate(.14)" gradientUnits="userSpaceOnUse">
      <stop offset="0" stop-color="#d4d8df"/>
      <stop offset="1" stop-color="#727c92"/>
    </linearGradient>
    <linearGradient id="linear-gradient-5" x1="291.89" y1="419.39" x2="291.89" y2="855.65" gradientTransform="translate(102.23 -244.17) rotate(.14)" gradientUnits="userSpaceOnUse">
      <stop offset="0" stop-color="#2dabe2"/>
      <stop offset="1" stop-color="#385caa"/>
    </linearGradient>
    <clipPath id="clippath">
      <ellipse cx="387.71" cy="535.61" rx="70.26" ry="53.98" transform="translate(-148.85 922) rotate(-89.86)" style="fill: none; stroke-width: 0px;"/>
    </clipPath>
    <clipPath id="clippath-1">
      <path d="m130.21,508.81s-16.01-138.19,105.87-191.06c121.88-52.86,84.94-47.23,100.31-93.1,24.67-73.62,143.05-125.67,319.76-156.11,0,0-91.31,96.91-67.52,187.86,23.78,90.95,42.23,55.31,49.42,111.68,3.09,24.2-49.73,13.23-49.7,28.68.08,41.19,66.74,58.47,30.59,113.26l-239.92-64.04-248.81,62.84Z" style="fill: none; stroke-width: 0px;"/>
    </clipPath>
    <linearGradient id="linear-gradient-6" x1="282.18" y1="610.48" x2="282.18" y2="794.01" gradientTransform="translate(102.23 -244.17) rotate(.14)" gradientUnits="userSpaceOnUse">
      <stop offset="0" stop-color="#fff"/>
      <stop offset=".16" stop-color="#d8eff9"/>
      <stop offset=".57" stop-color="#7ccaed"/>
      <stop offset=".86" stop-color="#43b3e5"/>
      <stop offset="1" stop-color="#2dabe2"/>
    </linearGradient>
  </defs>
  <path d="m191.31,766.98c-20.94,21.06-22.54,45.9-36.22,62.8-13.68,16.9-10,42.2-9.79,45.93.21,3.74-4.19,5.49-14.11,15.8-9.92,10.31,2.3,47.5,2.3,47.5l74.26,34.11,125.59-108.37-142.03-97.77Z" style="fill: url(#linear-gradient); stroke-width: 0px;"/>
  <path d="m586.8,973.48h0c1.85,1.22,3.72,2.41,5.62,3.54l85.02-43.42s9.14-84.54-47.43-166.09l-138.44,70.84s1.05,2.93,3.1,7.96h0s0,0,0,0c2.26,5.52,5.73,13.59,10.38,23.14,3.63,14.78,1.96,27.08,3.02,30.06,1.59,4.46,24.64,18.09,28.79,23.68,4.15,5.59,5.01,31.64,17.64,32.74,6.51.57,14.88,5.21,21.48,9.58,3.5,2.82,7.1,5.48,10.8,7.94,0,0,.03.02.03.02Z" style="fill: url(#linear-gradient-2); stroke-width: 0px;"/>
  <path d="m584.73,972.03c.68.47,1.35.97,2.04,1.43,0,0,.03.02.03.02h0c1.68,1.11,3.38,2.17,5.09,3.21l6.49-2.72,79.05-40.37s.29-2.75.45-7.68c-.05.03-50.7,29.3-93.15,46.1Z" style="fill: #1c2538; stroke-width: 0px;"/>
  <path d="m555.81,927.81c6.51.53,14.91,4.55,21.54,8.32,3.52,2.43,7.13,4.72,10.85,6.85,0,0,.03.02.03.02h0c1.86,1.05,3.74,2.08,5.64,3.06l10.32-4.45c-4.66-9.04-8.52-22.69-9.01-23.65-.67-1.31-32.75,3.77-40.96-9.43-8.21-13.21,38.29-28.46,34.05-36.12-4.24-7.66-48.68-2.85-57.57-20.98-8.89-18.14,33.72-34.11,57.02-33.1,23.29,1.01,52.17,30.65,85.41,34.69,0,0,0-.01,0-.02l-60.97-77.79-120.06,51.81s1.07,2.5,3.16,6.82c2.29,4.73,5.82,11.64,10.53,19.82,3.73,12.64,2.15,23.13,3.23,25.67,1.62,3.82,24.75,15.61,28.94,20.41,4.19,4.8,5.23,27.03,17.86,28.07Z" style="fill: #1c2538; opacity: .3; stroke-width: 0px;"/>
  <path d="m199.19,785.69c-10.15,51.51-10.55,81.73-14.44,107.17-3.89,25.43-9.4,39.74-10.64,68.46-3.23,74.76-4.55,69.17,12.12,81.08,24.8,17.72,383.16,76.81,444.44,1.09,20.09-24.83-8.44-36.7,6.59-54.94,15.03-18.24,12.61-81.55,5.55-107.26s-40.08-117.41-40.08-117.41l-403.56,21.81Z" style="fill: url(#linear-gradient-3); stroke-width: 0px;"/>
  <path d="m645.48,894.1c-3.29,9.42-5.71,19.45-5.73,28.64-.07,29.05,3.53,36.02-12.18,35.26-15.71-.76-27.98-17.12-33.08-10.14-14.22,19.49,16.14,57.81,26.22,73.01,10.08,15.21-45.2,16.63-57.53,34.44l60.48-4.77c2.65-2.21,5-4.56,7.02-7.06,20.09-24.83-8.44-36.7,6.59-54.94,12.93-15.69,12.94-64.68,8.2-94.45Z" style="fill: #1c2538; opacity: .3; stroke-width: 0px;"/>
  <path d="m287.64,1046.51c-11.9-.03-35-60.11-44.38-64.46-9.38-4.35-39.92,41.54-51.26,32.86-11.33-8.68,5.46-19.99,6.6-43.22,1.07-21.76-16-2.34-17.55-58.68-3.06,14.91-6.07,28.01-6.95,48.3-3.23,74.76-4.55,69.17,12.12,81.08,7.15,5.11,42.06,13.66,89.58,21.43,8.32-6.8,19.87-17.3,11.83-17.32Z" style="fill: #1c2538; opacity: .2; stroke-width: 0px;"/>
  <path d="m186.63,900.1c-.83,37.41,56.77,26.18,56.77,26.18,0,0-25.94-3.78-20.05-29.47,5.89-25.69,43.55-33.33,43.55-33.33,0,0,31.33,42.25,14.54,69.94-16.79,27.69-18.47,106.56-18.47,106.56l118.75-189.59-105.24-77.74-28.13,44.85-61.72,82.6Z" style="fill: #1c2538; opacity: .3; stroke-width: 0px;"/>
  <path d="m669.47,660.73c-.87-136-208.98-171.41-208.98-171.41,0,0-244.23-6.93-310.63,64.67-46.75,50.41-59.3,120.96-12.51,181.25,18.36,23.65,46.35,46.4,73.72,69.1,17.26,44.76-29.93,60.79-26.31,88.51,3.91,29.94,41.36,17.76,41.36,17.76,0,0-34.77-8.86-25.08-23.74,7.19-11.04,47.67-17.02,57.74-40.24,21.09,21.34,36.18,43.08,37,65.91,2.25,62.59-67.61,86.48-42.51,156.35,18.8,52.33,61.41,33.15,90.16,39.46,15.27,27.34-6.22,52.47-6.22,52.47,0,0,25.86-4.36,28.95-34.09.03.07.07.14.1.21,20.35,45.78-24.33,105.85,24.94,137.26,49.27,31.41,135.99,1.54,139.75-57.42,0,0-45.82,37.2-61.36-8.58-15.53-45.77,59.12-62.44,50.87-133.46-8.05-69.32-57.59-42.47-43.01-117.16,9.89,16.37,27.15,27.35,45.45,35.67,25.3,11.5,28.99,33.55,28.5,47.48,1.3-16.92,0-47.34-21.68-68.52-20.65-20.18-28.09-47.87-18.37-74.4,55.48-60.34,158.8-122.04,158.13-227.09Z" style="fill: url(#linear-gradient-4); stroke-width: 0px;"/>
  <path d="m388.13,639.38c-31.01-.08-72.61-30.11-80.96-20.44-8.36,9.67,18.99,98.26,81.12,98.42s89.25-83.35,82.75-91.66c-12.18-15.59-39.67,13.79-82.91,13.68Z" style="fill: #a77d52; stroke-width: 0px;"/>
  <path d="m130.21,508.81s-16.01-138.19,105.87-191.06c121.88-52.86,84.94-47.23,100.31-93.1,24.67-73.62,143.05-125.67,319.76-156.11,0,0-91.31,96.91-67.52,187.86,23.78,90.95,42.23,55.31,49.42,111.68,3.09,24.2-49.73,13.23-49.7,28.68.08,41.19,66.74,58.47,30.59,113.26l-239.92-64.04-248.81,62.84Z" style="fill: url(#linear-gradient-5); stroke-width: 0px;"/>
  <path d="m218.61,497.61c-19.24,68.16,59.24,66.15,80.47,83.81,21.23,17.65,29.5,35.65,92.92,35.81,63.43.16,68.39-20.75,82.36-36.85,13.97-16.1,91-23.98,85.26-76.06-5.74-52.09-184.56-50.33-184.56-50.33l-156.46,43.62Z" style="fill: #a77d52; stroke-width: 0px;"/>
  <ellipse cx="387.71" cy="535.61" rx="70.26" ry="53.98" transform="translate(-148.85 922) rotate(-89.86)" style="fill: #dbb07b; stroke-width: 0px;"/>
  <g style="clip-path: url(#clippath);">
    <path d="m334.09,491.34c-.29,116.02,107.43,116.28,107.71.27l-.29,116.02-107.71-.27.29-116.02Z" style="fill: #cf9f6f; stroke-width: 0px;"/>
  </g>
  <path d="m600.26,554.35c-30.26-15.07-113.65-50.24-220.94-50.5-109.11-.27-197.72,35.68-229.47,50.14-1.44.66-2.93,1.06-4.43,1.25h0s-.41,14.74,21.64,14.8c22.05.05,115.99-43.47,228.34-43.19,112.36.28,193.88,65.03,220.32,29.69l-2.92-1.68c-3.93,1.57-8.48,1.52-12.54-.5Z" style="fill: #1c2538; opacity: .2; stroke-width: 0px;"/>
  <path d="m361.45,889.82c-20.05,55.73-43.82,52.93-42.09,95,1.73,42.07,20.71,68.2,20.71,68.2,0,0-23.37-42.6-5.54-70.91,17.83-28.3,26.92-92.29,26.92-92.29Z" style="fill: #737c92; stroke-width: 0px;"/>
  <path d="m600.64,763.88c-64.37,39.92-104.96,78.5-93.48,146.59.09-7.51,1.42-15.13,4.17-22.65,55.48-60.34,158.8-122.04,158.13-227.09-.05-8.52-.92-16.64-2.5-24.38-5.25,39.55-20.75,99.27-66.32,127.53Z" style="fill: #737c92; stroke-width: 0px;"/>
  <path d="m479.86,914.21c-3.63,12.46-4.31,25.37-2.98,36.36.18-.98.36-1.97.56-2.99,9.89,16.37,27.15,27.35,45.45,35.67,25.3,11.5,28.99,33.55,28.5,47.48.32-4.12.47-9.03.23-14.42-1.49-11.27-6.15-24.69-17.82-37.52-27.79-30.51-52.83-13.77-53.93-64.59Z" style="fill: #737c92; stroke-width: 0px;"/>
  <g style="clip-path: url(#clippath-1);">
    <circle cx="296.16" cy="342.4" r="66.23" style="fill: #2dabe2; stroke-width: 0px;"/>
    <circle cx="537.91" cy="80.32" r="66.23" style="fill: #2dabe2; stroke-width: 0px;"/>
    <circle cx="589.33" cy="326.32" r="66.23" style="fill: #2dabe2; stroke-width: 0px;"/>
    <circle cx="456.51" cy="276.56" r="40.19" style="fill: #2dabe2; stroke-width: 0px;"/>
    <circle cx="450.78" cy="463.72" r="40.19" style="fill: #2dabe2; stroke-width: 0px;"/>
    <circle cx="603.21" cy="456.16" r="40.19" style="fill: #2dabe2; stroke-width: 0px;"/>
    <circle cx="126.04" cy="519.83" r="40.19" style="fill: #2dabe2; stroke-width: 0px;"/>
    <circle cx="577.81" cy="196.48" r="40.19" style="fill: #2dabe2; stroke-width: 0px;"/>
    <circle cx="411.34" cy="160.78" r="16.8" style="fill: #2dabe2; stroke-width: 0px;"/>
    <circle cx="491.65" cy="186.57" r="16.8" style="fill: #2dabe2; stroke-width: 0px;"/>
    <circle cx="496.46" cy="375.52" r="16.8" style="fill: #2dabe2; stroke-width: 0px;"/>
    <circle cx="496.46" cy="375.52" r="16.8" style="fill: #2dabe2; stroke-width: 0px;"/>
    <circle cx="526.99" cy="463.9" r="16.8" style="fill: #2dabe2; stroke-width: 0px;"/>
    <circle cx="287.18" cy="439.92" r="16.8" style="fill: #2dabe2; stroke-width: 0px;"/>
    <circle cx="362.6" cy="259.53" r="16.8" style="fill: #2dabe2; stroke-width: 0px;"/>
    <circle cx="428.02" cy="206.96" r="16.8" style="fill: #2dabe2; stroke-width: 0px;"/>
    <circle cx="176.91" cy="357.93" r="16.8" style="fill: #2dabe2; stroke-width: 0px;"/>
    <circle cx="185.42" cy="439.67" r="16.8" style="fill: #2dabe2; stroke-width: 0px;"/>
    <circle cx="410.77" cy="392.11" r="16.8" style="fill: #2dabe2; stroke-width: 0px;"/>
  </g>
  <path d="m343.42,1108.36c-3.97-9.62-15.23-1.47-48.54-11.9-33.31-10.43-41.9-68.06-19.41-103.52,22.49-35.46,55.89-65.42,34.34-110.25-21.55-44.83-45.93-65.15-45.93-65.15,0,0,1.07,10.38-5.11,29.1,21.09,21.34,36.18,43.08,37,65.91,2.25,62.59-67.61,86.48-42.51,156.35,18.8,52.33,61.41,33.15,90.16,39.46Z" style="fill: #737c92; stroke-width: 0px;"/>
  <path d="m193.76,892.88c-4.17-18.18,6.67-26.86,17.76-30.04,34.24-9.83,46.62-42.13,9.52-73.74-37.04-31.56-88.67-31.74-113.02-140.43-1.1,29.06,7.84,58.9,29.32,86.58,18.36,23.65,46.35,46.4,73.72,69.1,17.26,44.76-29.93,60.79-26.31,88.51,3.75,28.7,38.29,18.7,41.15,17.82-9.01-.69-28.93-3.8-32.14-17.8Z" style="fill: #737c92; stroke-width: 0px;"/>
  <path d="m588.63,256.4c-23.78-90.95,67.52-187.86,67.52-187.86-4.19.72-8.34,1.46-12.46,2.21-30.58,26.65-55.88,94.13-61.49,106.84-6.35,14.4-5.92,91.26-12.34,96.85-6.42,5.59,32.73,40.92,37.45,74.02.74,5.17.89,9.17.5,12.25-14.69,18.44-47.46-25.21-47.46-25.21,0,0,12.1,31.92-.07,35.79,0,0-.01,0-.02,0-32.58,4.72-73.03-33.81-73.07-20.2-.03,13.61,68.78,33,66.35,42.6-2.43,9.6,16.67,57.69-12.97,66.42l49.15,42.1,29.21,7.8c36.15-54.79-30.51-72.06-30.59-113.26-.03-15.45,52.79-4.48,49.7-28.68-7.19-56.37-25.64-20.73-49.42-111.68Z" style="fill: #1c2538; opacity: .2; stroke-width: 0px;"/>
  <path d="m359.75,245.31c-16.33-1.67-22.32,52.39-40.47,52.34-18.15-.04-58.53,15.99-58.55,21.04-.01,5.04,55.46,5.18,69.59.17,14.13-5.01,78.81-25.02,111.01-10.82,32.2,14.2,70.15,16.31,65.31,9.24-4.84-7.07-31.02-23.27-82.46-24.41-51.43-1.14-54.35-46.53-64.43-47.56Z" style="fill: #1c2538; opacity: .2; stroke-width: 0px;"/>
  <path d="m227.21,463.11c-46.91-45.32-88.54-34.26-59.68-92.42-46.25,61.05-37.33,138.12-37.33,138.12l103.42-26.12c2.69-5.78,1.14-12.28-6.42-19.58Z" style="fill: #1c2538; opacity: .2; stroke-width: 0px;"/>
  <polygon points="335.88 433.42 314.96 428.87 314.94 434.51 296.16 426.27 291.85 442.29 260.46 428.73 260.44 436.61 244.61 436.57 244.6 439.99 223.65 439.94 230.2 444.42 215.78 444.38 215.76 453.58 201.95 449.6 201.93 459.15 188.14 459.12 188.13 464.21 171.05 464.17 171.04 471.31 154.62 471.27 154.61 475.1 134.91 475.05 138.83 481.62 129.65 485.36 112.23 482.87 129.52 488.37 108.31 488.32 115.16 496.01 108.26 508.76 112.94 508.77 108.22 536.54 117.07 519.66 117.67 541.35 122.3 528.87 123.56 552.51 130.31 547.93 134.7 561.07 152.45 551.27 158.59 561.13 187.21 549.67 199.78 553.02 210.59 534.5 228.13 537.85 233.82 514.52 246.16 546.18 259.8 511.48 264.56 526.74 275.06 507.85 279.26 520.28 290.3 509.2 292.23 511.05 291.97 518.34 306.68 509.25 311.98 513.96 321.42 506.92 330.82 512.04 335.7 505.64 358.67 517.6 358.7 503.8 370.83 516.07 379.32 503.85 393.49 518.08 405.39 503.91 418.71 512.26 431.29 506.69 449.29 520.57 467.01 511.74 463.8 523.36 481.48 514.38 481.46 521.05 492.07 516.36 492.03 530.88 501.87 519.12 510.08 531.71 522.65 523.89 534.4 535.69 539.48 529.87 547.33 542.41 555.19 534.57 562.24 542.45 564.57 549.31 573.87 542.48 581.28 552.29 581.29 547.19 591.62 558.59 597.52 551.93 600.26 556.5 609.39 555.77 618.67 569.25 618.71 550.65 639.91 547.33 626.53 537.82 637.64 534.77 633.72 525.53 656.88 508.53 636.47 508.48 637.74 494.66 632.01 502.64 618.5 477.05 615.88 490.96 610.67 471.14 601.23 479.14 595.37 469.14 592.61 474.24 588.12 461.67 581.48 471.79 571.07 458.1 565.18 463.58 562.09 440.77 546.75 456.86 539.32 448.21 536.8 454.37 527.57 440.68 537.78 436.83 521.68 440.67 519.7 448.95 513.07 432.42 503.63 440.63 498.93 436.73 498.13 443.01 489.9 440.59 489.93 427.29 483.24 438.26 473.06 430 473.43 438.24 462.85 433.9 463.68 413.89 455.39 430.74 451.46 437.79 441.04 423.25 441.01 435.18 421.07 413.78 422.58 435.99 414.15 420.6 409.41 433.45 403.47 424.65 402.2 432.15 395.67 417.1 387.98 429.01 378.7 419.57 378.72 409.22 373.67 420.5 377.42 426.78 369.26 428.33 369.3 413.27 365.82 425.81 365.8 433.03 346.71 414.79 352 432.37 335.9 425.43 335.88 433.42" style="fill: url(#linear-gradient-6); stroke-width: 0px;"/>
  <path d="m616.26,914.84c-24.72-18.38-38.67-59.42-46.71-43.46-8.04,15.96-8.8,43.23-7.84,55.34.96,12.11,13.82,12.58,13.82,12.58,2.18-28.12,4.41-24.92,18.94-16.19,14.53,8.73,37.68,25.08,38.43,16.33,2.14-24.85-16.64-24.6-16.64-24.6Z" style="fill: #1c2538; opacity: .3; stroke-width: 0px;"/>
  <path d="m358.82,686.86c12.33,3.35,45.05,4.38,58.82.14,0,0-11.4,9.46-28.72,9.42-17.32-.04-30.1-9.56-30.1-9.56Z" style="fill: #1c2538; opacity: .4; stroke-width: 0px;"/>
  <path d="m440.32,635.79c0,3.33,4.78,16.47,14.67,16.17l-14.67-16.17Z" style="fill: #1c2538; opacity: .4; stroke-width: 0px;"/>
  <path d="m337.42,635.54c0,3.33-4.86,16.45-14.74,16.1l14.74-16.1Z" style="fill: #1c2538; opacity: .4; stroke-width: 0px;"/>
  <circle cx="677.98" cy="68.85" r="38.12" style="fill: #385caa; stroke-width: 0px;"/>
  <path d="m640,71.92c1.56,19.57,17.91,34.99,37.89,35.04,21.05.05,38.16-16.97,38.21-38.03,0-2.81-.3-5.55-.87-8.19-15.03,30.62-50.43,31.08-75.24,11.17Z" style="fill: #223654; opacity: .3; stroke-width: 0px;"/>
  <g style="opacity: .4;">
    <path d="m654.76,49.58c3.51-16.55,31.4-19.76,39.41-5.27-7.44-.31-13.15.16-20.05.91-6.88.88-12.36,1.77-19.36,4.37h0Z" style="fill: #fff; stroke-width: 0px;"/>
  </g>
  <path d="m332.54,646.04s14.92,30.96,55.76,32.28c40.84,1.32,56.83-32,56.83-32l-9.22,5.3-50.08,4.03-39.95-2.52-13.34-7.08Z" style="fill: #1c2538; stroke-width: 0px;"/>
  <path d="m445.79,647.07s-15.99,33.32-56.83,32c-40.84-1.32-55.76-32.28-55.76-32.28,0,0,22.89,26.2,56.82,24.92,33.93-1.28,55.77-24.64,55.77-24.64Z" style="fill: #7b1225; stroke-width: 0px;"/>
  <path d="m332.54,646.04l5.97,2.52c5.11,2.15,10.59,3.27,16.13,3.28l68.54.17c5.69.01,11.33-1.14,16.56-3.38l5.4-2.31h0c-7.77,7.29-18.03,11.34-28.69,11.31l-55.14-.14c-9.74-.02-19.17-3.45-26.65-9.7l-2.11-1.76Z" style="fill: #7b1225; stroke-width: 0px;"/>
</svg>