<?xml version="1.0" encoding="UTF-8"?>
<svg id="Layer_1" data-name="Layer 1" xmlns="http://www.w3.org/2000/svg" width="800" height="927.75" xmlns:xlink="http://www.w3.org/1999/xlink" viewBox="0 0 800 927.75">
  <defs>
    <linearGradient id="linear-gradient" x1="394.07" y1="-47.53" x2="394.07" y2="546.19" gradientUnits="userSpaceOnUse">
      <stop offset="0" stop-color="#ea1b39"/>
      <stop offset="1" stop-color="#7a1224"/>
    </linearGradient>
    <clipPath id="clippath">
      <path d="m144.69,560.51c-12.38-88.63-6.19-148.56,20.94-176.17,19.42-19.76,32.89-59.15,47.71-86.22,33.4-61,55.89-55.55,71.56-76.67,16.97-22.87,30.79-48.55,37.48-61,17.04-31.69,60.62-119.01,177.05-98.8,0,0-84.09,14.55-65.03,88.58,12.75,49.51,53.52,81.62,60.75,110.41,6.58,26.24,14.93,35.79,34.48,50.79,42.76,32.82,58.32,63.02,52,125.85-6.32,62.83,90.64,66.68,62.48,125.01-6.44,13.35-112.31-14.21-154.22-11.12-141.19,10.38-345.21,9.34-345.21,9.34Z" style="fill: none; stroke-width: 0px;"/>
    </clipPath>
    <linearGradient id="linear-gradient-2" x1="179.19" y1="1076.89" x2="179.19" y2="812.73" gradientUnits="userSpaceOnUse">
      <stop offset="0" stop-color="#7a1224"/>
      <stop offset="1" stop-color="#ea1b39"/>
    </linearGradient>
    <linearGradient id="linear-gradient-3" x1="646.4" y1="1076.83" x2="646.4" y2="812.73" xlink:href="#linear-gradient-2"/>
    <linearGradient id="linear-gradient-4" x1="424.21" y1="1317.89" x2="424.21" y2="855.39" gradientUnits="userSpaceOnUse">
      <stop offset="0" stop-color="#7a1224"/>
      <stop offset="1" stop-color="#ea1b39"/>
    </linearGradient>
    <linearGradient id="linear-gradient-5" x1="186.02" y1="985.3" x2="673.89" y2="985.3" gradientUnits="userSpaceOnUse">
      <stop offset="0" stop-color="#223654"/>
      <stop offset=".52" stop-color="#385caa"/>
      <stop offset="1" stop-color="#223654"/>
    </linearGradient>
    <clipPath id="clippath-1">
      <path d="m278.4,848.09s-14.12,130.26-98.82,143.67c0,0-6.59,86.13,29.36,130.75h434.91c39.88-54.94,29.75-130.75,29.75-130.75,0,0-84.95,1.3-100.83-143.67h-294.36Z" style="fill: none; stroke-width: 0px;"/>
    </clipPath>
    <linearGradient id="linear-gradient-6" x1="179.96" y1="865.77" x2="171.05" y2="808.3" gradientUnits="userSpaceOnUse">
      <stop offset="0" stop-color="#d4d8df"/>
      <stop offset="1" stop-color="#727c92"/>
    </linearGradient>
    <linearGradient id="linear-gradient-7" x1="400.69" y1="626.41" x2="400.69" y2="1015.17" gradientUnits="userSpaceOnUse">
      <stop offset=".16" stop-color="#d4d8df"/>
      <stop offset="1" stop-color="#727c92"/>
    </linearGradient>
    <linearGradient id="linear-gradient-8" x1="387.21" y1="620.25" x2="387.21" y2="336.87" gradientUnits="userSpaceOnUse">
      <stop offset="0" stop-color="#9f0821"/>
      <stop offset=".02" stop-color="#a10821"/>
      <stop offset=".45" stop-color="#c8122e"/>
      <stop offset=".79" stop-color="#e11836"/>
      <stop offset="1" stop-color="#ea1b39"/>
    </linearGradient>
    <clipPath id="clippath-2">
      <ellipse cx="392.36" cy="603.15" rx="66.07" ry="49.26" style="fill: none; stroke-width: 0px;"/>
    </clipPath>
    <linearGradient id="linear-gradient-9" x1="475.04" y1="63.3" x2="548.25" y2="63.3" gradientUnits="userSpaceOnUse">
      <stop offset="0" stop-color="#c57b2a"/>
      <stop offset="1" stop-color="#ebbb1e"/>
    </linearGradient>
  </defs>
  <g>
    <polygon points="183.33 585.99 387.01 536.66 592.28 608.27 499.99 783.3 393.37 803.99 219.93 686.24 183.33 585.99" style="fill: #f1b197; stroke-width: 0px;"/>
    <path d="m359.07,725.7c15.76,5.5,31.82,8.19,48.3,4.62,5.35-1.1,10.61-2.74,15.88-4.62-19.07,12.9-44.97,12.35-64.18,0h0Z" style="fill: #cc8f79; stroke-width: 0px;"/>
    <path d="m325.05,695.74c19.42,13.84,42.98,22.26,66.9,22.2,24.16.14,46.96-8.89,67.57-21.17-9.83,8.4-21.24,15.11-33.44,19.84-22.47,8.55-48.21,8.42-70.39-.89-11.33-4.66-22.05-11.23-30.63-19.98h0Z" style="fill: #851624; stroke-width: 0px;"/>
    <path d="m315.74,702.93c2.66-1.93,4.69-4.61,6.76-7.08,1.98-2.63,3.68-4.98,4.07-8.46,4.3,6.07-4.23,16.27-10.83,15.54h0Z" style="fill: #cc8f79; stroke-width: 0px;"/>
    <path d="m454.79,686.73c1.41,2.97,3.67,5.45,5.72,7.94,2.23,2.43,4.22,4.53,7.57,5.55-6.76,3.12-15.22-7.14-13.29-13.49h0Z" style="fill: #cc8f79; stroke-width: 0px;"/>
  </g>
  <g>
    <path d="m144.69,560.51c-12.38-88.63-5.19-152.01,23.05-178.48,28.24-26.47,42.34-111.69,96.94-143.12,36.24-20.86,53.85-79.48,77.28-109.99,40.76-53.08,64.49-72.92,157.48-67.26,0,0-134.61,25.69-26.57,163.1,39.53,50.29,12.59,50.83,56.77,86.67,44.19,35.84,58.32,63.02,52,125.85-6.32,62.83,90.64,66.68,62.48,125.01-6.74,13.97-85.44-2.95-130.45-.11-142.94,9-368.98-1.67-368.98-1.67Z" style="fill: url(#linear-gradient); stroke-width: 0px;"/>
    <g style="clip-path: url(#clippath);">
      <path d="m127.48,534.13c28.3-21.15,113.36-71.65,267.81-71.65s232.87,50.66,259.28,71.75" style="fill: none; stroke: #fff; stroke-miterlimit: 10; stroke-width: 4.96px;"/>
      <path d="m127.48,504.54c28.3-21.15,113.36-71.65,267.81-71.65s232.87,50.66,259.28,71.75" style="fill: none; stroke: #fff; stroke-miterlimit: 10; stroke-width: 4.96px;"/>
      <path d="m127.48,474.96c28.3-21.15,113.36-71.65,267.81-71.65s232.87,50.66,259.28,71.75" style="fill: none; stroke: #fff; stroke-miterlimit: 10; stroke-width: 4.96px;"/>
      <path d="m127.48,445.37c28.3-21.15,113.36-71.65,267.81-71.65s232.87,50.66,259.28,71.75" style="fill: none; stroke: #fff; stroke-miterlimit: 10; stroke-width: 4.96px;"/>
      <path d="m127.48,415.79c28.3-21.15,113.36-71.65,267.81-71.65s232.87,50.66,259.28,71.75" style="fill: none; stroke: #fff; stroke-miterlimit: 10; stroke-width: 4.96px;"/>
      <path d="m127.48,386.2c28.3-21.15,113.36-71.65,267.81-71.65s232.87,50.66,259.28,71.75" style="fill: none; stroke: #fff; stroke-miterlimit: 10; stroke-width: 4.96px;"/>
      <path d="m127.48,356.62c28.3-21.15,113.36-71.65,267.81-71.65s232.87,50.66,259.28,71.75" style="fill: none; stroke: #fff; stroke-miterlimit: 10; stroke-width: 4.96px;"/>
      <path d="m127.48,327.03c28.3-21.15,113.36-71.65,267.81-71.65s232.87,50.66,259.28,71.75" style="fill: none; stroke: #fff; stroke-miterlimit: 10; stroke-width: 4.96px;"/>
      <path d="m127.48,297.45c28.3-21.15,113.36-71.65,267.81-71.65s232.87,50.66,259.28,71.75" style="fill: none; stroke: #fff; stroke-miterlimit: 10; stroke-width: 4.96px;"/>
      <path d="m127.48,267.86c28.3-21.15,113.36-71.65,267.81-71.65s232.87,50.66,259.28,71.75" style="fill: none; stroke: #fff; stroke-miterlimit: 10; stroke-width: 4.96px;"/>
      <path d="m127.48,238.28c28.3-21.15,113.36-71.65,267.81-71.65s232.87,50.66,259.28,71.75" style="fill: none; stroke: #fff; stroke-miterlimit: 10; stroke-width: 4.96px;"/>
      <path d="m127.48,208.7c28.3-21.15,113.36-71.65,267.81-71.65s232.87,50.66,259.28,71.75" style="fill: none; stroke: #fff; stroke-miterlimit: 10; stroke-width: 4.96px;"/>
      <path d="m127.48,179.11c28.3-21.15,113.36-71.65,267.81-71.65s232.87,50.66,259.28,71.75" style="fill: none; stroke: #fff; stroke-miterlimit: 10; stroke-width: 4.96px;"/>
      <path d="m127.48,149.53c28.3-21.15,113.36-71.65,267.81-71.65s232.87,50.66,259.28,71.75" style="fill: none; stroke: #fff; stroke-miterlimit: 10; stroke-width: 4.96px;"/>
    </g>
    <path d="m382.71,277.25s33.85,49.72,75.11,57.12c41.26,7.4,70.87,63.47,70.87,78.28s31.73,45.49,41.26,47.6c9.52,2.12-8.46-67.7-8.46-83.57s-22.21-52.89-58.18-61.35c-35.97-8.46,6.35-34.91-39.14-41.26-45.49-6.35-79.34-9.52-81.45,3.17Z" style="fill: #7a1224; opacity: .7; stroke-width: 0px;"/>
    <path d="m168.64,410.5s116.67-70.98,194.99-64.45c78.32,6.53,97.9,33.45,105.24,48.14,7.34,14.69-110.96-7.34-150.12-.82-39.16,6.53-186.83,86.48-150.12,17.13Z" style="fill: #7a1224; opacity: .7; stroke-width: 0px;"/>
    <path d="m229.88,302.34s3.41-38.32,34.91-45.98c17.82-4.34,48.54-12.77,56.2-48.54,4.93-23.03,18.73-62.16,45.13-91.96,0,0-34.12,48.38-25.36,100.92,5.61,33.65-36.88,60.09-59.28,60.09-40.87,0-51.6,25.48-51.6,25.48Z" style="fill: #7a1224; opacity: .7; stroke-width: 0px;"/>
  </g>
  <path d="m243.73,877.09l-25.29,88.51-30.88,108.09-.74,2.63c-2.58.35-5.07.53-7.48.56-6.1.12-11.65-.74-16.7-2.48,0-.02-.02-.02-.02-.02-25.44-8.72-38.23-39.78-43.51-83.67-.63-5.27-.51-26.41-.73-31.9-.35-9.1-4.49-17.4-3.62-26.83.76-8.14,4.77-15.92,6.51-24.12,3.83-18.14,8.9-37.98,17.92-55.11,9.17-17.41,12.39-25.59,27.57-40.03l76.96,64.36Z" style="fill: url(#linear-gradient-2); stroke-width: 0px;"/>
  <path d="m218.44,965.6l-30.88,108.09-8.23,3.19c-6.1.12-11.65-.74-16.7-2.48,0-.02-.02-.02-.02-.02-5.01-6.87-10.97-16.93-6.21-20.63,7.5-5.85,4.16-18.34,4.16-68.32s45.84-110.75,45.84-110.75l12.03,90.92Z" style="fill: #7f1326; stroke-width: 0px;"/>
  <path d="m704,1008.68c-1.44,5.72,1.12,33.29-.93,38.39-3.83,9.52-7.37,13.22-12.03,15.96-3.63,2.15-7.93,3.72-13.58,6.99-3.45,2-7.12,3.6-10.97,4.72-6.84,2.03-14.27,2.63-22.25,1.57l-56.89-199.23,67.37-64.36c5.9,5.62,17.13,5.72,22.15,11.86,5.42,6.64,2.53,27.77,6.97,34.89,22.85,36.67,23.42,136.25,20.15,149.2Z" style="fill: url(#linear-gradient-3); stroke-width: 0px;"/>
  <path d="m691.05,1063.03c-3.63,2.15-7.93,3.72-13.58,6.99-3.45,2-7.12,3.6-10.97,4.72-.79.07-1.24.1-1.24.1l-52.28-214.41h-5.83c15.79-15.05,61.67,56.66,65.83,85.82,4.16,29.17,18.32,43.33,19.99,66.66,1.21,16.83.68,38.46-1.92,50.12Z" style="fill: #7f1326; stroke-width: 0px;"/>
  <path d="m665.48,1073.07c-.18.61-.36,1.21-.56,1.82-.02.02-.02.05-.03.07-.02.1-.05.18-.08.28-1.09,3.4-2.3,6.76-3.63,10.08-2.78,7.02-6.05,13.86-9.83,20.47-.71,1.22-1.42,2.41-2.15,3.62-2.73,4.48-5.7,8.87-8.92,13.12-1.01,1.34-2.05,2.66-3.11,3.98-5.27,6.53-11.15,12.75-17.66,18.62-2.71,2.46-5.52,4.84-8.44,7.17-.84.66-1.67,1.32-2.53,1.97-3.44,2.63-7.04,5.19-10.77,7.65-3.37,2.21-42.98,10.54-46.5,28.07-1.7,8.44,1.06,19.41,2.79,32.63,1.06,8.16,1.73,17.18.71,26.99-2.86,27.41-6.13,46.04-10.7,56.38-2.28,5.15-4.87,8.26-7.9,9.38-.91.33-1.92.78-3.02,1.32-3.3,1.59-7.42,3.93-11.93,6.38-16.54,8.95-38.64,19.11-47.43-2.56,0,0,0-.03-.03-.08-.02-.05-.03-.12-.07-.18-4.41-10.77-11.58-26.98-16.64-44.4-3.01-10.36-5.25-21.14-5.75-31.49-.96-20.24-30.71-80.86-45.73-31.78-.56,1.85-2.2,7.25-4.48,14.74-.02.05-.03.12-.05.17-3.73,12.19-9.2,29.8-14.72,46.32-.02.07-.03.12-.05.18-4.69,14.01-9.4,27.22-13.13,35.73-1.31,2.97-2.49,5.37-3.5,7.02-.07.12-.13.21-.21.31-11.28,17.2-51.66-12.92-62.56-17.97-.26-.13-.5-.23-.71-.31.35-.61.73-1.39,1.12-2.33.56-1.29,1.14-2.89,1.72-4.79,0-.02.02-.03.02-.05,4.18-13.79,7.96-42.93-4.44-79.19-1.83-5.34-2.66-18.6-20.37-26.46l-46.57-32.41-.02-.02c-26.76-20.98-44.24-47.33-53.75-76.83-.07-.25-.15-.51-.23-.78-11.5-36.23-11.05-77.2-1.16-118.81.79-3.39,1.67-6.77,2.59-10.18,1.78-6.53,3.8-13.05,6.05-19.59,3.88-11.4,8.44-22.78,13.65-34.06,1.19-2.64,2.43-5.27,3.7-7.88.59-1.24,1.21-2.46,1.83-3.7,1.21-2.44,2.46-4.89,3.75-7.33.18-.35.36-.69.56-1.04,1.4-2.69,2.86-5.37,4.34-8.03,1.12-2.02,2.26-4.01,3.42-6,.97-1.69,1.95-3.37,2.96-5.04h388.92c3.12,4.23,6.13,8.52,9.02,12.85.56.84,1.12,1.69,1.69,2.53.59.91,1.19,1.83,1.77,2.76h.02c.43.68.86,1.34,1.27,2.02.61.94,1.21,1.9,1.78,2.84,2.61,4.21,5.1,8.47,7.48,12.75,7.9,14.14,14.59,28.61,19.97,43.22,5.15,13.94,9.14,28,11.84,41.99,1.09,5.52,1.97,11.04,2.63,16.54,3.47,28.22,1.62,55.85-6.24,81.38Z" style="fill: url(#linear-gradient-4); stroke-width: 0px;"/>
  <path d="m278.4,848.09s-14.12,130.26-98.82,143.67c0,0-6.59,86.13,29.36,130.75h434.91c39.88-54.94,29.75-130.75,29.75-130.75,0,0-84.95,1.3-100.83-143.67h-294.36Z" style="fill: url(#linear-gradient-5); stroke-width: 0px;"/>
  <g style="clip-path: url(#clippath-1);">
    <polyline points="287.79 1122.51 287.79 985.3 363.17 908.91 488.8 908.91 563.34 984.45 563.34 1122.51" style="fill: none; stroke: #223754; stroke-miterlimit: 10; stroke-width: 6.56px;"/>
    <line x1="426.93" y1="1122.51" x2="426.93" y2="878.46" style="fill: none; stroke: #1c2538; stroke-miterlimit: 10; stroke-width: 13.13px;"/>
  </g>
  <g>
    <path d="m145.83,789.47s-5.89,30.61,48.56,83.88c0,0,3.24-2.35,9.42-4.41,0,0-44.5-49.62-49.49-59.61-4.99-9.99-8.48-19.86-8.48-19.86Z" style="fill: url(#linear-gradient-6); stroke-width: 0px;"/>
    <g>
      <path d="m157.84,825.24s-29.79,9.93-28.39,12.99c1.4,3.06,37.81,37.05,42.88,27.64,5.07-9.41,5.12-26.48,5.12-26.48l-19.61-14.16Z" style="fill: #223754; stroke-width: 0px;"/>
      <path d="m164.87,888.3c-13.59,19.28-35.54,27.06-49.17,17.5-13.63-9.57-13.74-32.96-.2-52.2,13.54-19.24,23.91-16.34,37.55-6.75s25.28,22.22,11.82,41.46Z" style="fill: #2dabe2; stroke-width: 0px;"/>
      <path d="m161.51,858.35s6.23,29.44-41.03,44.75c0,0,54.77,1.14,41.03-44.75Z" style="fill: #f5f6f6; stroke-width: 0px;"/>
      <polygon points="117.16 890.22 117.36 880.37 108.06 877.15 117.48 874.28 117.68 864.46 123.3 872.53 132.72 869.68 126.77 877.52 132.4 885.59 123.1 882.37 117.16 890.22" style="fill: #f5f6f6; stroke-width: 0px;"/>
    </g>
  </g>
  <path d="m206.41,874.68s-27.61-27.1-38.78-34.2c-12.01-7.64-7.59,4.79-5.6,8.08,7.61,12.6,71.77,69.74,85.4,78.55,0,0,7.89-35.37,23.66-27.79,15.78,7.58,39.97,71.38,39.97,71.38,0,0,1.05-27.16,6.31-27.16l5.78,4.42s37.34-58.74,83.09,55.59c0,0,32.6-113.07,36.29-108.01,3.68,5.05,9.99,17.69,9.99,17.69,0,0,38.92-25.9,53.11,38.53,0,0,36.51-10.49,48.91-43.58,4.73-12.63,9.99,19.58,29.98-5.68,19.98-25.27,32.08-13.26,44.17-24,2.99-2.66,28.16-27.73,25.03-39.93-3.47-13.54,7.82-24.94,2.5-23.79-21.59,4.66-74.86,41.62-74.86,41.62l-374.96,18.32Z" style="opacity: .5; stroke-width: 0px;"/>
  <g>
    <path d="m629.64,624.99c-.68-.91-1.37-1.87-2.08-2.87-.07-.12-.15-.23-.23-.35-1.02-1.5-2.08-3.11-3.17-4.79-2.66-4.08-5.5-8.61-8.69-13.12-10.99-15.5-26.08-30.84-51.43-27.57-11.32,1.45-10.72,1.44-21.39,14.67-.1.15-.21.28-.33.43-1.21,1.49-2.53,3.12-4.05,4.96l-.02.03c-.53.64-1.57,1.42-2.96,2.35-8.71,5.65-31.54,16.19-35.76,28.33-8.24,23.62-25.92,36.1-39.02,31.42-2.51-.89-4.82-1.52-6.95-1.88-21.51-3.73-25.89,17.23-58.15,19.21-1.09.07-2.16.12-3.2.13h-.03c-36.19.96-35.4-21.52-60.08-15.94-.81.18-1.65.4-2.53.64-44.19,12.52-19.53-18.95-52.85-33.04-18.68-7.91-20.42-20.62-21.86-31.14-.31-2.28-.61-4.46-1.06-6.48-.18-.79-.4-1.55-.63-2.28-1.98-6.1-6.36-10.01-19.15-9.25-14.17.86-25.01,8.92-36.19,14.49-3.87,1.92-7.15,3.72-9.98,5.42-12.24,7.37-15.5,12.72-16.78,16.77-.58,1.73-.78,3.22-1.17,4.54-.43,1.45-1.09,2.68-2.71,3.78-.89.59-1.7,1.31-2.4,2.11-.48.53-.91,1.09-1.29,1.7-2.1,3.35-5.68,6.61-12.32,6.79-1.02.05-2.15,0-3.34-.13,0,0,3.2,16.39.74,22.15-5.07,11.84-44.59,74.6-22.38,112.02,0,0,1.5-32.81,1.73-11.94.28,25.9,5.43,51.39,17.43,73.56.99,1.87,2.05,3.7,3.16,5.52,6.41,10.51,14.47,20.19,24.42,28.66.12.1.21.15.28.15.08,0,.12-.1.1-.28-.21-2.78-11.25-24.58-11.6-25.54.03.05.08.13.15.25,3.17,5.57,7.98,11.65,13.73,17.81,5.37,5.75,11.55,11.56,17.97,17.1,4.91,4.21,9.94,8.26,14.88,11.96,2.49,1.9,4.97,3.7,7.38,5.4.28.2.55.38.83.58.83.58,1.65,1.16,2.46,1.69,6.18,4.23,11.84,7.67,16.42,9.96.23.12.46.23.69.35,2.73,1.34,5.02,2.23,6.76,2.61h.03s.07.02.1.02c1.97.43,3.19.15,3.49-.93,0,0,.12-2.33,1.04-5.3.23-.76.53-1.57.89-2.4,1.8-4.11,5.27-8.59,11.93-9.83.55-.1,1.11-.08,1.73.07,1.93.43,4.2,1.98,6.67,4.34,1.97,1.87,4.08,4.25,6.23,6.97.74.91,1.47,1.85,2.2,2.82,3.37,4.48,6.86,9.66,10.24,14.97,2,3.17,3.96,6.39,5.85,9.53,1.26,2.1,2.46,4.15,3.62,6.15,7.17,12.31,12.37,22.14,12.31,21.39-.23-3.11-.25-6.01-.07-8.71.61-9.04,3.34-15.83,7.15-20.75.84-1.07,4.41,9.91,5.34,9,0,0-.17-6.71,1.85-12.06,1.04-2.78,2.68-5.17,5.22-6.1,7.09-2.59,13.61-2.87,19.63-1.47,11.43,2.69,20.98,11.51,28.76,22.27,2.79,3.83,5.35,7.91,7.71,12.04,2.06,3.65,3.98,7.35,5.73,10.95v.02c8.06,16.62,12.69,31.29,14.36,31.04,1.07-.15,2.82-4.81,5.2-12.08,3.19-9.68,7.53-24.02,12.95-38.51,1.34-3.62,2.76-7.25,4.25-10.82,1.83-4.39,3.77-8.71,5.8-12.8.17-.31.33-.64.48-.96,1.45-2.86,2.96-5.58,4.49-8.16.79-1.32,1.6-2.59,2.43-3.82,1.14-1.73,2.33-3.37,3.54-4.89.74-.94,1.5-1.85,2.26-2.69,3.02-3.35,5.2,6.89,5.85,6.89.58,0,3.29-3.83,6.64-7.04.45-.41.91-.84,1.39-1.24,1.19-1.01,2.58,2.18,3.63,1.65.93-.46,1.57-1.98,2.16-3.06.13-.23.25-.45.38-.63.15-.21.3-.38.46-.48,4.64-2.63,9.1-2.31,13.22-.08,2.18,1.19,4.28,2.91,6.24,5.04.48.53.97,1.09,1.44,1.67,2.86,3.45,5.4,7.7,7.6,12.24,5.81,12.09,9.04,26.28,8.06,33.09-.17,1.19-.45,2.15-.88,2.84l-.02.02-.03.17c.05.23.71.3,1.8.13,5.8-.84,24.14-8.01,33.24-29.24,1.07-2.51,2.03-5.2,2.81-8.11.31-1.19.61-2.4.88-3.65.1-.53.21-1.07.31-1.64.21-1.14.58-2.16,1.07-3.07,2.23-4.1,7.04-5.86,11.71-5.25,2.56.33,12.22,7.24,19.94,9.91,2.71.94,5.17,1.35,6.99.78.5-.15.94-.36,1.34-.68.5-.38,1.01-.78,1.52-1.21,2.71-2.13,5.68-4.58,8.87-7.3.74-.63,1.5-1.29,2.26-1.95,2.56-2.25,5.24-4.66,8-7.25.53-.5,1.62-1.17,3.06-1.97,3.01-1.62,7.55-3.75,11.71-5.78,4.51-2.2,8.57-4.28,9.81-5.55.05-.05.1-.1.13-.15.93-1.06.08-1.6-1.27-2.02h-.02c-2.63-.79-7.17-1.07-5.05-3.45.2-.23.41-.46.61-.69.33-.36.66-.74.99-1.14,12.62-14.5,25.11-31.98,34.63-52.02.56-1.16,1.09-2.31,1.62-3.49,4.34-9.65,2.97-2.84,1.29,4.91-2.15,9.96-4.81,21.48,3.62,1.4,2.64-6.29,6.38-15.71,11.56-29.26,24.09-62.97-32.49-145.39-46.34-163.61Zm-327.22,59.37c5.04-13.03,62.13,11.73,93.85,11.73s73.15-24.91,83.51-13.2c10.36,11.73-33.01,63.73-86.08,63.73s-95.81-50.53-91.27-62.26Z" style="fill: url(#linear-gradient-7); stroke-width: 0px;"/>
    <path d="m675.97,788.6c-34.53,90.25-4.77-3.04-16.47,22.95-10.08,22.37-23.97,41.66-37.85,57.34-3.27,3.68,9.42,2.35,6.21,5.62-2.92,3.01-21.77,10.64-24.58,13.3-7.76,7.29-14.9,13.23-20.65,17.71-1.85,1.44-4.89,1.09-8.33-.1,1.78-9.5,6.67-28.94,17.05-29.92,13.76-1.27,53.64-66.9,58.45-105.77,0,0,5.19,25.28,6.89,19.11,25.76-93.68-60.53-182.26-56.4-184.18,4.81-2.23,9.9-2.36,15.17-.79,5.5,7.78,9.98,15.59,14.17,21.13,13.84,18.22,70.42,100.64,46.34,163.61Z" style="fill: #cbd3dd; stroke-width: 0px;"/>
    <path d="m453.03,865.05s31.37-25.66,44.2-4.28c12.83,21.39,14.26,67.01,14.26,67.01,0,0,50.35-81.6-9.98-96.96-39.21-9.98-48.48,34.22-48.48,34.22Z" style="fill: #cbd3dd; stroke-width: 0px;"/>
    <path d="m609.05,719.9s-63.23,10.23-61.51,45.7c1.72,35.48,34.74,41.34,16.95,82.83,0,0,32.72-40.21,6.17-67.51-26.55-27.3,38.39-61.03,38.39-61.03Z" style="fill: #cbd3dd; stroke-width: 0px;"/>
    <path d="m309.32,953.73c.15,1.87-32.84-63.02-47.11-66.18,6.13-2.4,14.65-.25,25.42,15.28,12.21,17.59,18.45,32.11,21.62,42.19-.18,2.69-.17,5.6.07,8.71Z" style="fill: #cbd3dd; stroke-width: 0px;"/>
    <path d="m410.21,977.9c-2.38,7.27-4.13,11.93-5.2,12.08-3.6.53-20.81-67.91-56.56-76.32,16.34-.61,49.26,5.85,61.77,64.24Z" style="fill: #cbd3dd; stroke-width: 0px;"/>
    <path d="m542.66,900.75c-.5.91-.86,1.93-1.07,3.07-6.76,36.79-38.62,44.22-39.04,42.5l.03-.17.02-.02c.96-.66,31.68-22.2,35.76-36.95,1.14-4.15,2.68-6.79,4.3-8.44Z" style="fill: #cbd3dd; stroke-width: 0px;"/>
    <path d="m246.61,905.02c-.01,2.04-3.37,1.61-11.07-2.05-19.87-9.99-60.63-41.58-73.68-64.49-.07-.12-.12-.2-.15-.25.38,1.07,14.07,28.1,11.22,25.67-32.11-27.37-44.55-67.07-45-107.74-.23-20.86-1.73,11.94-1.73,11.94-22.2-37.42,17.31-100.17,22.38-112.02,2.46-5.77-.74-22.15-.74-22.15,1.19.13,2.31.18,3.34.13,7.73,4.68,17.63,13.51,18.98,28.53,2.28,25.18-41.94,62.54-14.49,125.07,20.09,45.76,59.49,87.39,79.16,106.45,7.22,6.95,11.78,10.9,11.78,10.9Z" style="fill: #cbd3dd; stroke-width: 0px;"/>
    <path d="m391.7,675.81s58-20.22,63.99-33.05c0,0,2.87,51.56-63.99,33.05Z" style="fill: #cbd3dd; stroke-width: 0px;"/>
    <path d="m392.69,675.81s-58-20.22-63.99-33.05c0,0-2.87,51.56,63.99,33.05Z" style="fill: #cbd3dd; stroke-width: 0px;"/>
    <path d="m317.97,884.48s56.64-33.71,91.02,16.18c0,0-28.99-23.6-91.02-16.18Z" style="fill: #cbd3dd; stroke-width: 0px;"/>
    <path d="m202,676.81s-45.85,59.33-20.9,99.79c24.95,40.45,33.04,49.89,33.04,49.89,0,0-18.2-32.36-16.18-59.33,0,0,2.7,11.46,6.74,18.2,0,0-19.55-77.54-2.7-108.55Z" style="fill: #cbd3dd; stroke-width: 0px;"/>
    <path d="m220.2,755.02s1.07,2.51,2.75,6.6c5.58,13.66,17.79,44.95,18.83,59.48,1.35,18.88,33.71,18.2,39.78,33.71,0,0-13.48-23.6-22.92-31.01l-38.43-68.77Z" style="fill: #cbd3dd; stroke-width: 0px;"/>
    <path d="m275.09,777.51s73.01,8.63,82.97,21.24c0,0,86.29,1.99,99.56,10.62,0,0-85.62,11.28-98.9,21.24,0,0-34.52-44.47-83.63-53.1Z" style="fill: #cbd3dd; stroke-width: 0px;"/>
  </g>
  <path d="m148.78,618.16l-15.74-27.49c-4.05-7.08-2.42-16.28,3.83-21.24,27.13-21.55,108.7-73,256.8-73s223.29,51.61,248.61,73.1c5.84,4.96,7.31,13.75,3.55,20.61l-14.87,27.16c-4.01,7.32-12.65,10.12-19.79,6.36-29.81-15.67-117.56-41.38-223.12-41.38s-188.83,26.96-220.03,42.16c-6.99,3.4-15.25.69-19.24-6.29Z" style="opacity: .2; stroke-width: 0px;"/>
  <path d="m658.1,586.39l-7.24-.56.61,11.66-5.43-3.88-3.6,22.76-5.43-7.76-7.83,11.65-10.25-6.66-18.06-2.21-4.82-6.11-23.49,4.99,5.41-9.99-19.26-4.44-7.24,5.01-7.83-8.33-5.41,3.88-13.26-7.22-18.67-8.89-5.45,10.31,2.15,10.06-21.39-24.25-.61,11.66-12.04-14.44-10.25,6.1-6.02-7.76-12.04,3.88-.61-4.44-4.82,1.67-8.42-4.44-15.66,11.1-14.46-8.33-4.23,1.11-5.41-3.88-17.47,5.55-30.11-4.99-5.41,7.76-6.63-6.66-4.23,4.99-1.2-4.43-12.04,7.22-8.44-4.44-11.45,27.21-10.25-15.13-4.85,4.91-1.5,8.92-13.51-17.33-3.39,5.8-11.13-.89-12.56,8.01-.97-6.23-6.27,7.57h-14.99l1.93,11.6-15.46-9.81-.97,8.92-10.14-2.68-2.42,3.57-5.8-2.23-4.35,9.35-31.89-.45-5.8,3.57-3.37-14.7-8.22,1.78,1.93-14.26-3.87,3.55-3.39-10.24-11.59-4.01,13.85-10.44c.36-.96.82-1.87,1.42-2.74l-5.11-8.64,13.83,1.45c1.11-.73,2.26-1.47,3.49-2.21l1.02-6.38,6.07,2.13c1.63-.94,3.37-1.92,5.16-2.89l-3.86-14.09,13.38-2.4-1.94-14.27,17.63-11.7,7.99,8.76.61-6.03,11.25,1.37,4.46-4.92,7.11,1.92,4.44-3.55-1.18-3.83,9.19,2.46,3.26,4.66,5.05-13.4,9.48,10.94,4.44-6.03,4.16,5.75,8.01-4.64,3.26,2.46,26.69-11.76,24.31,7.1.88-3.01,13.35,2.46,2.08-4.92,3.57,1.37.59-4.38,7.11,7.12,7.11-5.2,8.31,3.29,12.15-14.22,20.46,14.49,2.38-8.19,3.26,8.47,1.77-5.47,22.82,5.47,8.6-9.58v9.85l2.97-2.73,21.05,2.46,8.01-7.12,3.85,5.47,11.57,3.02,1.47-5.75,14.53-4.38-5.34,3.83,3.71,7.37,4.82-5.55,22.29,9.99,2.4-13.33,14.46,18.32,7.24-7.22,9.62,9.45,29.95,1.07-2.24,8.92,9.03-2.21,7.83,8.87,6.63-21.66,4.82,23.89,12.04-8.89v17.21l6.02-2.21,10.25,12.21,22.88,4.44,2.42,12.77,15.66,3.34-13.26,11.66,4.23,6.11Z" style="fill: url(#linear-gradient-8); stroke-width: 0px;"/>
  <g>
    <ellipse cx="391.13" cy="615.67" rx="66.07" ry="49.26" style="fill: #cc8f79; stroke-width: 0px;"/>
    <ellipse cx="392.36" cy="603.15" rx="66.07" ry="49.26" style="fill: #f1b197; stroke-width: 0px;"/>
    <g style="clip-path: url(#clippath-2);">
      <path d="m326.58,572.21c0,81.34,131.85,81.34,131.85,0v81.34h-131.85v-81.34Z" style="fill: #e29d84; stroke-width: 0px;"/>
    </g>
  </g>
  <circle cx="511.65" cy="63.3" r="36.6" style="fill: url(#linear-gradient-9); stroke-width: 0px;"/>
</svg>